<svg xmlns="http://www.w3.org/2000/svg" xmlns:xlink="http://www.w3.org/1999/xlink" width="760.147" height="68.233" viewBox="0 0 760.147 68.233"><defs><clipPath id="a"><rect width="760.147" height="68.233" fill="none"/></clipPath></defs><g transform="translate(-39.052 -118.246)"><g transform="translate(39.052 118.246)" clip-path="url(#a)"><path d="M81.9,146.147H70.381a1.926,1.926,0,0,0,0,3.852h9.6v14.865a21.758,21.758,0,0,1-4.051,2.613,20.714,20.714,0,0,1-9.225,2.01c-7.133,0-14.3-3.046-18.279-7.772A23.905,23.905,0,0,1,42.9,146.2c0-10.015,6.008-19.26,14.612-22.485l.013-.007a25.339,25.339,0,0,1,10.632-1.564,23.761,23.761,0,0,1,12.792,4.2,1.883,1.883,0,0,0,2.6-.666,1.852,1.852,0,0,0-.546-2.545A27.381,27.381,0,0,0,68.382,118.3a30.068,30.068,0,0,0-12.267,1.773c-10.206,3.94-17.063,14.443-17.063,26.126a27.925,27.925,0,0,0,6.41,17.975c4.79,5.653,12.926,9.165,21.241,9.165a24.53,24.53,0,0,0,10.9-2.4,25.376,25.376,0,0,0,5.633-3.776,2.1,2.1,0,0,0,.6-1.455V148.128a1.569,1.569,0,0,0-.013-.2,1.927,1.927,0,0,0-1.919-1.779" transform="translate(-39.052 -118.235)" fill="#000600"/><path d="M87.016,147.8c5.025-2.518,8.069-7.732,8.069-14.059,0-9.662-6.782-15.2-18.6-15.2H70.388a1.906,1.906,0,0,0-1.926,1.926v49.774a1.925,1.925,0,1,0,3.849,0V122.384h4.171c5.511,0,14.754,1.5,14.754,11.548a11.267,11.267,0,0,1-7.821,11.18,1.943,1.943,0,0,0-1.28,1.387,1.976,1.976,0,0,0,.468,1.775l16.038,23.073a1.894,1.894,0,0,0,.184.22,1.964,1.964,0,0,0,3.288-.874,1.892,1.892,0,0,0-.375-1.7Z" transform="translate(-3.213 -117.894)" fill="#000600"/><path d="M113.759,119.8a1.967,1.967,0,0,0-.47-.694,1.906,1.906,0,0,0-.189-.166,2.143,2.143,0,0,0-.224-.14,1.832,1.832,0,0,0-.958-.273H100.4a1.926,1.926,0,0,0,0,3.851h8.679L89.756,169.418a1.9,1.9,0,0,0,.921,2.525,1.973,1.973,0,0,0,2.611-1.025l7.934-19.34h21.323l7.88,19.359a1.941,1.941,0,0,0,1.788,1.214,2,2,0,0,0,.7-.129,1.949,1.949,0,0,0,1.114-2.511ZM102.8,147.729l9.141-22.188,8.985,22.188Z" transform="translate(22.527 -117.9)" fill="#000600"/><path d="M158.705,118.535h-8.468a1.968,1.968,0,0,0-1.988,1.99v49.648a1.947,1.947,0,0,0,1.988,1.992h12c20.393,0,31.176-9.252,31.176-26.752,0-11.537-3.6-26.878-34.706-26.878m3.656,49.781H152.1V122.387h7.956c19.854,0,29.507,7.426,29.507,22.707,0,15.628-8.9,23.222-27.2,23.222" transform="translate(94.015 -117.894)" fill="#000600"/><path d="M255.253,118.535a1.909,1.909,0,0,0-1.928,1.926v26.75c0,13.454-6.98,21.811-18.217,21.811-14.01,0-18.987-11.785-18.987-21.875V120.461a1.922,1.922,0,1,0-3.845,0v26.75c0,15.588,8.957,25.66,22.832,25.66,13.613,0,22.071-9.857,22.071-25.725V120.461a1.907,1.907,0,0,0-1.926-1.926" transform="translate(172.04 -117.894)" fill="#000600"/><path d="M310.933,164.147a2.183,2.183,0,0,0-.2.149,23.552,23.552,0,0,1-4.754,3.195,20.74,20.74,0,0,1-9.227,2.01c-7.126,0-14.3-3.051-18.275-7.774a23.891,23.891,0,0,1-5.522-15.512c0-10.015,6.006-19.264,14.627-22.494a24.928,24.928,0,0,1,9.169-1.626,24.559,24.559,0,0,1,14.168,4.206,1.424,1.424,0,0,0,.311.171,1.911,1.911,0,0,0,2.057-3.135,2.009,2.009,0,0,0-.226-.189,28.115,28.115,0,0,0-16.309-4.9,29.739,29.739,0,0,0-10.583,1.839c-10.2,3.94-17.063,14.436-17.063,26.128a27.933,27.933,0,0,0,6.407,17.973c4.788,5.649,12.928,9.161,21.239,9.161a24.515,24.515,0,0,0,10.9-2.4,25.784,25.784,0,0,0,5.6-3.745,1.748,1.748,0,0,0,.344-.4,1.927,1.927,0,0,0-2.656-2.651" transform="translate(241.286 -118.246)" fill="#000600"/><path d="M335.275,118.535h-39.9a1.926,1.926,0,0,0,0,3.851H313.4v47.851a1.927,1.927,0,0,0,3.854,0V122.387h18.022a1.926,1.926,0,1,0,0-3.851" transform="translate(270.957 -117.894)" fill="#000600"/><path d="M321.891,118.535a1.907,1.907,0,0,0-1.924,1.926v49.776a1.925,1.925,0,0,0,3.849,0V120.461a1.9,1.9,0,0,0-1.926-1.926" transform="translate(303.271 -117.894)" fill="#000600"/><path d="M356.882,118.246h-.118c-18.7,0-27.211,16-27.282,27.384a28.435,28.435,0,0,0,7.883,20.216c4.779,4.785,11.348,7.31,19.007,7.31h.129a27.628,27.628,0,0,0,19.874-8.074,28.272,28.272,0,0,0,7.827-20.507c-.326-15.679-11.31-26.259-27.32-26.33m-.115,3.847h.1c13.975.062,23.191,8.917,23.484,22.548a24.437,24.437,0,0,1-6.716,17.758,23.484,23.484,0,0,1-17.15,6.909h-.12c-6.674,0-12.14-2.085-16.251-6.205a24.88,24.88,0,0,1-6.78-17.454c.06-9.8,7.37-23.555,23.431-23.555" transform="translate(314.865 -118.246)" fill="#000600"/><path d="M405.086,118.535a1.9,1.9,0,0,0-1.926,1.926v25.248l-38.943-26.625a2.023,2.023,0,0,0-1.4-.548,1.9,1.9,0,0,0-1.924,1.926v49.776a1.923,1.923,0,1,0,3.847,0V124.326l38.424,26.211v19.7a1.926,1.926,0,0,0,3.852,0V120.461a1.906,1.906,0,0,0-1.926-1.926" transform="translate(353.138 -117.894)" fill="#000600"/><path d="M285.247,118.535a1.906,1.906,0,0,0-1.926,1.926v25.248l-38.943-26.625a2.023,2.023,0,0,0-1.4-.548,1.9,1.9,0,0,0-1.924,1.926v49.776a1.924,1.924,0,1,0,3.847,0V124.326l38.424,26.211v19.7a1.926,1.926,0,0,0,3.851,0V120.461a1.906,1.906,0,0,0-1.926-1.926" transform="translate(207.103 -117.894)" fill="#000600"/><path d="M161.158,118.535a1.9,1.9,0,0,0-1.926,1.926v25.248l-38.948-26.625a2,2,0,0,0-1.4-.548,1.9,1.9,0,0,0-1.926,1.926v49.776a1.925,1.925,0,0,0,3.849,0V124.326l38.424,26.211v19.7a1.926,1.926,0,0,0,3.851,0V120.461a1.906,1.906,0,0,0-1.926-1.926" transform="translate(55.885 -117.894)" fill="#000600"/><path d="M211.444,119.711a1.878,1.878,0,0,0-.373-.6,1.944,1.944,0,0,0-1.378-.581H198.181a1.925,1.925,0,1,0,0,3.849h9.589V166c-.06,6.773-5.635,12.482-10.461,16.679a1.952,1.952,0,0,0-.288,2.771,1.879,1.879,0,0,0,1.449.681,2.028,2.028,0,0,0,1.285-.477c7.983-6.707,11.865-13.147,11.865-19.7l0-45.406c0-.029,0-.06,0-.084a1.955,1.955,0,0,0-.175-.748" transform="translate(152.515 -117.896)" fill="#000600"/><rect width="12.851" height="12.851" transform="translate(311.671 27.552) rotate(-45.007)" fill="#000600"/></g></g></svg>