<svg xmlns="http://www.w3.org/2000/svg" width="524.975" height="524.975"><g fill="#f9f8f6"><path d="M20.18 242.31a28.538 28.538 0 1 0 40.357 0 28.57 28.57 0 0 0-40.358 0zm35.954 35.955a6.351 6.351 0 1 1 0-8.981 6.358 6.358 0 0 1 0 8.98zM32.12 264.29h6.437v6.437a9.921 9.921 0 0 0-6.435-6.434zm-7.538-17.579a6.35 6.35 0 1 1 0 8.982 6.357 6.357 0 0 1 0-8.981zm11.533 11.534a9.893 9.893 0 0 0 2.438-4v6.437h-6.438a9.9 9.9 0 0 0 4.001-2.437zm8.486 8.485a9.9 9.9 0 0 0-2.438 4v-6.437h6.438a9.9 9.9 0 0 0-4 2.437zm-2.438-6.047v-6.438a9.924 9.924 0 0 0 6.434 6.435zm2.438-16.526a9.9 9.9 0 0 0-2.437 4v-10.514a24.859 24.859 0 0 1 11.597 3.83 9.96 9.96 0 0 0-9.16 2.684zm11.534 2.553a6.35 6.35 0 1 1-8.98 0 6.357 6.357 0 0 1 8.979.002zm-17.581 1.45a9.942 9.942 0 0 0-11.6-6.687 24.859 24.859 0 0 1 11.599-3.828zm-16.525 10.085a9.9 9.9 0 0 0 4 2.438H15.515a24.87 24.87 0 0 1 3.828-11.598 9.96 9.96 0 0 0 2.686 9.16zm3.996 6.045a9.94 9.94 0 0 0-6.682 11.601 24.864 24.864 0 0 1-3.828-11.598zm7.535 4.99a6.351 6.351 0 1 1-8.982 0 6.358 6.358 0 0 1 8.985.003zm2.557 11.538a9.893 9.893 0 0 0 2.437-4l-.001 10.513a24.867 24.867 0 0 1-11.598-3.828 9.959 9.959 0 0 0 9.162-2.685zm6.044-3.996a9.943 9.943 0 0 0 11.598 6.684 24.867 24.867 0 0 1-11.597 3.83zm16.529-10.091a9.9 9.9 0 0 0-4-2.438h10.514a24.866 24.866 0 0 1-3.83 11.597 9.959 9.959 0 0 0-2.684-9.16zm-3.997-6.044a9.942 9.942 0 0 0 6.684-11.597 24.865 24.865 0 0 1 3.83 11.597zM87.603 220.929a4.02 4.02 0 1 0-5.685 0 4.02 4.02 0 0 0 5.685 0zM76.676 205.814a41.72 41.72 0 0 1-.407.802l-.083.172c-.224.459-1.28.29-2.182-.662-1.639-1.729-2.226-2.132-3.36-2.155.021 1.135.426 1.722 2.155 3.36.95.899 1.125 1.954.663 2.182l-.172.083s-.084.046-.802.407c-1.573.792-.31 2.517.47 3.075s.617.09.656-.88a1.462 1.462 0 0 1 2.127-1.35 25.526 25.526 0 0 1 3.808 3.345 6.415 6.415 0 0 1 .605-.711 6.415 6.415 0 0 1 .71-.605 25.578 25.578 0 0 1-3.341-3.811 1.463 1.463 0 0 1 1.35-2.127c.967-.042 1.435.12.88-.657s-2.286-2.04-3.077-.468zM95.906 223.976a1.463 1.463 0 0 1-2.125 1.348 25.563 25.563 0 0 1-3.81-3.34 6.415 6.415 0 0 1-.605.71 6.415 6.415 0 0 1-.71.604A25.51 25.51 0 0 1 92 227.106a1.462 1.462 0 0 1-1.351 2.127c-.967.04-1.439-.125-.88.656s2.284 2.043 3.076.47c.36-.717.405-.803.406-.802l.084-.171c.224-.46 1.28-.29 2.182.662 1.638 1.729 2.224 2.134 3.36 2.156-.023-1.135-.427-1.721-2.157-3.36-.95-.899-1.121-1.959-.662-2.182l.172-.084s.084-.045.803-.407c1.573-.791.31-2.518-.47-3.075s-.616-.087-.657.88zM79.55 221.982a25.5 25.5 0 0 1-3.808 3.344 1.462 1.462 0 0 1-2.126-1.35c-.04-.967.121-1.434-.657-.88s-2.041 2.283-.47 3.075c.72.36.804.405.803.406l.172.084c.46.224.29 1.28-.662 2.182-1.73 1.637-2.134 2.225-2.156 3.36 1.135-.023 1.721-.427 3.36-2.157.898-.948 1.957-1.12 2.181-.662l.084.172s.046.084.406.802c.792 1.573 2.518.31 3.075-.47s.09-.618-.88-.658a1.463 1.463 0 0 1-1.348-2.122 25.509 25.509 0 0 1 3.345-3.807 6.514 6.514 0 0 1-.711-.605 6.512 6.512 0 0 1-.608-.714z"/><path d="M64.605 197.884a28.538 28.538 0 1 0 40.358 0 28.537 28.537 0 0 0-40.358 0zm38.66 16.195c-.084 1.088-1.934 3.17-5.538 1.817-1.798-.676-2.456-1.261-3.584.254a5.9 5.9 0 0 0-.919 1.91 5.907 5.907 0 0 0 .92 1.909c1.127 1.514 1.781.933 3.583.254 3.605-1.353 5.455.73 5.537 1.817.59 7.66-.63 12.315-1.405 13.09s-5.427 1.992-13.09 1.405c-1.088-.083-3.17-1.934-1.817-5.537l-.254-3.584a5.89 5.89 0 0 0-1.91-.919 5.9 5.9 0 0 0-1.909.92c-1.516 1.127-.933 1.781-.254 3.583 1.352 3.604-.73 5.455-1.817 5.537-7.66.59-12.316-.631-13.09-1.405s-1.993-5.427-1.406-13.09c.083-1.087 1.934-3.171 5.538-1.817 1.799.676 2.456 1.26 3.584-.254a5.89 5.89 0 0 0 .92-1.909 5.9 5.9 0 0 0-.92-1.91c-1.127-1.515-1.782-.933-3.583-.254-3.605 1.353-5.455-.73-5.538-1.816-.59-7.661.63-12.317 1.405-13.09s5.428-1.994 13.09-1.406c1.088.084 3.172 1.933 1.817 5.537-.675 1.799-1.26 2.456.255 3.584a5.892 5.892 0 0 0 1.91.92 5.9 5.9 0 0 0 1.908-.92c1.516-1.128.934-1.782.255-3.584-1.353-3.604.73-5.454 1.816-5.537 7.66-.589 12.315.63 13.09 1.406s1.992 5.426 1.405 13.09z"/><path d="M95.517 206.128c-.899.95-1.958 1.12-2.182.661l-.085-.171s-.045-.084-.407-.802c-.789-1.573-2.516-.31-3.074.47s-.089.618.88.657A1.462 1.462 0 0 1 92 209.068a25.5 25.5 0 0 1-3.344 3.808 6.508 6.508 0 0 1 .71.606 6.51 6.51 0 0 1 .606.71 25.509 25.509 0 0 1 3.81-3.342 1.463 1.463 0 0 1 2.12 1.352c.042.967-.12 1.435.657.88s2.046-2.287.474-3.078c-.718-.361-.802-.406-.802-.407l-.171-.084c-.46-.225-.29-1.28.662-2.182 1.728-1.638 2.134-2.224 2.156-3.36-1.14.027-1.726.43-3.361 2.157zM109.03 153.458a28.538 28.538 0 1 0 40.358 0 28.537 28.537 0 0 0-40.357 0zm19.41 3.785c1.798-3.94 5.878-7.235 7.02-6.93s3.028 5.2 2.617 9.511a14.261 14.261 0 0 1-3.561 7.703 8.09 8.09 0 0 0-6.846-1.842 14.259 14.259 0 0 1 .77-8.442zm4.41 12.754a5.143 5.143 0 1 1-7.273 0 5.144 5.144 0 0 1 7.27.003zm-18.224-3.89c-2.513-3.528-3.326-8.708-2.49-9.545s6.017-.022 9.544 2.49a14.265 14.265 0 0 1 4.891 6.935 8.024 8.024 0 0 0-5.01 5.01 14.265 14.265 0 0 1-6.935-4.89zm-8.74 13.78c-.306-1.143 2.989-5.222 6.929-7.021a14.259 14.259 0 0 1 8.44-.768 8.091 8.091 0 0 0 1.842 6.846 14.263 14.263 0 0 1-7.7 3.56c-4.312.41-9.206-1.474-9.511-2.617zm24.095 10.145c-1.799 3.94-5.878 7.235-7.02 6.93s-3.029-5.2-2.617-9.511a14.263 14.263 0 0 1 3.56-7.703 8.092 8.092 0 0 0 6.845 1.844 14.263 14.263 0 0 1-.768 8.44zm13.815-8.865c2.512 3.528 3.325 8.708 2.49 9.544s-6.017.023-9.545-2.489a14.265 14.265 0 0 1-4.89-6.935 8.024 8.024 0 0 0 5.01-5.01 14.265 14.265 0 0 1 6.934 4.89zm8.74-13.78c.306 1.144-2.99 5.222-6.93 7.021a14.263 14.263 0 0 1-8.441.77 8.092 8.092 0 0 0-1.843-6.846 14.262 14.262 0 0 1 7.703-3.56c4.31-.412 9.204 1.473 9.51 2.615z"/><g transform="rotate(-45 222.61 -96.275)"><path d="M40.008 17.068a11.47 11.47 0 0 0-11.47-11.47c-6.34 0-11.857 4.748-11.857 11.082-6.335 0-11.083 5.518-11.083 11.857a11.47 11.47 0 0 0 11.47 11.47 11.47 11.47 0 0 0 22.94 0 11.47 11.47 0 1 0 0-22.939zm8.233 10.908a1 1 0 0 1-1.059-.122 3.7 3.7 0 0 0-2.155-.779 6.208 6.208 0 0 1 1.971 1.309c.912.848 1.288 1.588 1.119 2.2a1.146 1.146 0 0 1-.907.789 1.27 1.27 0 0 1-1.211-.32 1.677 1.677 0 0 0-1.212-.714 3.007 3.007 0 0 1 1.435 2.482c0 1.233-.738 2.74-1.6 2.74a.762.762 0 0 1-.7-.519 2.838 2.838 0 0 1-.173-1.112 2.148 2.148 0 0 0-.614-1.587 3.222 3.222 0 0 1 .173 1.077c0 1.283-.708 2.852-1.534 2.852a.754.754 0 0 1-.7-.573 3.514 3.514 0 0 1-.166-1.226 1.565 1.565 0 0 0-.5-1.306c-.964-.777-3.293-.271-4.684.032a821.89 821.89 0 0 1-6.129 1.3.38.38 0 0 1-.175 0 6.073 6.073 0 0 1-.878.071 6.007 6.007 0 0 1-2.393-.5c.115.19.235.385.365.592a5.678 5.678 0 0 0 3.284 2.557 12.762 12.762 0 0 1 1.561.7 5.739 5.739 0 0 1 2.48 3.067 6.386 6.386 0 0 1-.3 4.949c-.949 2.031-2.337 2.788-3.319 2.821h-.062a1.149 1.149 0 0 1-1.054-.516 1 1 0 0 1 .122-1.059 3.687 3.687 0 0 0 .772-2.153 6.2 6.2 0 0 1-1.307 1.97c-.847.912-1.588 1.289-2.2 1.12a1.146 1.146 0 0 1-.788-.908 1.265 1.265 0 0 1 .318-1.21 1.685 1.685 0 0 0 .716-1.212 3.011 3.011 0 0 1-2.483 1.435c-1.233 0-2.739-.738-2.739-1.6a.762.762 0 0 1 .519-.7 2.827 2.827 0 0 1 1.112-.173 2.147 2.147 0 0 0 1.587-.614 3.206 3.206 0 0 1-1.077.173c-1.283 0-2.852-.707-2.852-1.533a.755.755 0 0 1 .573-.705 3.518 3.518 0 0 1 1.221-.163 1.57 1.57 0 0 0 1.307-.5c.777-.964.27-3.293-.033-4.684-.522-2.4-1.3-6.129-1.3-6.129a.386.386 0 0 1 .005-.175 5.858 5.858 0 0 1 .425-3.272c-.19.115-.385.235-.592.366a5.675 5.675 0 0 0-2.554 3.284 12.813 12.813 0 0 1-.7 1.56 5.735 5.735 0 0 1-3.067 2.479 6.2 6.2 0 0 1-2.086.362 6.7 6.7 0 0 1-2.863-.663c-2.031-.949-2.789-2.337-2.821-3.319a1.174 1.174 0 0 1 .515-1.119 1 1 0 0 1 1.059.121 3.686 3.686 0 0 0 2.154.779 6.192 6.192 0 0 1-1.974-1.308c-.911-.848-1.288-1.588-1.12-2.2a1.146 1.146 0 0 1 .907-.788 1.265 1.265 0 0 1 1.211.318 1.68 1.68 0 0 0 1.211.715 3.008 3.008 0 0 1-1.435-2.483c0-1.233.738-2.739 1.6-2.739a.762.762 0 0 1 .7.518 2.839 2.839 0 0 1 .173 1.112 2.139 2.139 0 0 0 .611 1.579 3.2 3.2 0 0 1-.171-1.068c0-1.283.708-2.852 1.534-2.852.578 0 .871.6.871 1.8a1.566 1.566 0 0 0 .5 1.306c.964.777 3.293.27 4.684-.032 2.4-.523 6.129-1.3 6.129-1.3a.392.392 0 0 1 .176.005 5.87 5.87 0 0 1 3.271.426 54.2 54.2 0 0 0-.366-.593 5.673 5.673 0 0 0-3.286-2.556 12.667 12.667 0 0 1-1.56-.7 5.735 5.735 0 0 1-2.48-3.066 6.382 6.382 0 0 1 .3-4.949c.949-2.031 2.336-2.789 3.319-2.821a1.162 1.162 0 0 1 1.116.515 1 1 0 0 1-.114 1.061 3.685 3.685 0 0 0-.779 2.153 6.214 6.214 0 0 1 1.309-1.974c.848-.911 1.589-1.286 2.2-1.12a1.149 1.149 0 0 1 .788.908 1.264 1.264 0 0 1-.319 1.211 1.681 1.681 0 0 0-.715 1.211 3.01 3.01 0 0 1 2.483-1.434c1.233 0 2.739.738 2.739 1.6a.761.761 0 0 1-.518.7 2.826 2.826 0 0 1-1.112.173 2.145 2.145 0 0 0-1.587.614 3.216 3.216 0 0 1 1.077-.173c1.283 0 2.852.708 2.852 1.534 0 .578-.6.871-1.8.871a1.567 1.567 0 0 0-1.307.5c-.777.964-.271 3.293.033 4.684a894.387 894.387 0 0 1 1.3 6.129.387.387 0 0 1-.006.177 5.871 5.871 0 0 1-.425 3.269c.19-.115.385-.235.592-.366a5.675 5.675 0 0 0 2.556-3.286 12.767 12.767 0 0 1 .7-1.561 5.738 5.738 0 0 1 3.066-2.48 6.382 6.382 0 0 1 4.95.3c2.03.949 2.788 2.336 2.82 3.319a1.173 1.173 0 0 1-.51 1.119z"/><path d="M28.538 0a28.538 28.538 0 1 0 28.537 28.537A28.537 28.537 0 0 0 28.538 0zm14.125 42.662a14.372 14.372 0 0 1-28.25 0 14.4 14.4 0 0 1-11.72-14.125c0-7.018 4.671-13.262 11.333-14.512 1.249-6.661 7.493-11.332 14.512-11.332a14.4 14.4 0 0 1 14.125 11.72 14.372 14.372 0 0 1 0 28.25z"/><circle cx="3.982" cy="3.982" r="3.982" transform="rotate(-22.48 77.907 -45.467)"/></g><g transform="rotate(-45 191.197 -172.115)"><path d="M25.365 20.928a10.681 10.681 0 0 0-7.544-3.107 10.681 10.681 0 0 0 3.107 7.544 8.269 8.269 0 0 1 4.437-4.437zM20.928 31.709a10.681 10.681 0 0 0-3.107 7.544 10.681 10.681 0 0 0 7.544-3.107 8.271 8.271 0 0 1-4.437-4.437zM13.538 32.385c-2.198 0-6.433-2.198-6.433-3.847a10.721 10.721 0 0 0 8.007 10.366 13.361 13.361 0 0 1 2.883-7.953c-1.638.887-2.458 1.434-4.457 1.434zM13.538 24.69c2 0 2.82.542 4.456 1.434a13.361 13.361 0 0 1-2.882-7.953 10.72 10.72 0 0 0-8.007 10.365c0-1.648 4.235-3.846 6.433-3.846zM32.385 13.538c0 2-.542 2.82-1.434 4.456a13.362 13.362 0 0 1 7.953-2.883 10.719 10.719 0 0 0-10.366-8.006c1.648 0 3.847 4.234 3.847 6.433zM36.146 25.365a10.681 10.681 0 0 0 3.107-7.544 10.681 10.681 0 0 0-7.544 3.107 8.267 8.267 0 0 1 4.437 4.437z"/><path d="M24.691 13.538c0-2.199 2.198-6.433 3.847-6.433a10.72 10.72 0 0 0-10.367 8.007 13.362 13.362 0 0 1 7.953 2.883c-.891-1.638-1.433-2.459-1.433-4.457zM32.385 43.537c0 2.2-2.2 6.433-3.847 6.433a10.719 10.719 0 0 0 10.366-8.006 13.362 13.362 0 0 1-7.953-2.883c.887 1.637 1.434 2.457 1.434 4.456zM24.691 43.537c0-2 .542-2.82 1.433-4.456a13.36 13.36 0 0 1-7.953 2.883 10.72 10.72 0 0 0 10.367 8.007c-1.649-.001-3.847-4.235-3.847-6.434zM41.964 18.171a13.362 13.362 0 0 1-2.883 7.953c1.637-.892 2.458-1.434 4.456-1.434 2.2 0 6.433 2.2 6.433 3.847 0 1.649-4.235 3.848-6.433 3.848-2 0-2.82-.542-4.456-1.434a13.362 13.362 0 0 1 2.883 7.953 10.714 10.714 0 0 0 0-20.733z"/><path d="M28.538 0a28.538 28.538 0 1 0 28.537 28.537A28.537 28.537 0 0 0 28.538 0zm13.2 41.734a13.428 13.428 0 0 1-26.394 0 13.428 13.428 0 0 1 0-26.394 13.428 13.428 0 0 1 26.394 0 13.428 13.428 0 0 1 0 26.394z"/><circle cx="5.77" cy="5.77" r="5.77" transform="rotate(-67.5 34.189 .116)"/><path d="M31.709 36.146a10.681 10.681 0 0 0 7.544 3.107 10.681 10.681 0 0 0-3.107-7.544 8.269 8.269 0 0 1-4.437 4.437z"/></g><path d="M263.327 35.67a.419.419 0 0 1-.42.42h-1.646a.42.42 0 0 1-.42-.42v-1.21a5.594 5.594 0 0 0-4.252 4.253h1.209a.419.419 0 0 1 .42.42v1.646a.419.419 0 0 1-.42.42h-1.21a5.594 5.594 0 0 0 4.253 4.253l.004-1.205a.419.419 0 0 1 .42-.42l1.642-.003a.419.419 0 0 1 .42.42l.001 1.208a5.6 5.6 0 0 0 4.253-4.252h-1.21a.42.42 0 0 1-.42-.42l.005-1.643a.42.42 0 0 1 .42-.42h1.209a5.6 5.6 0 0 0-4.253-4.253zm.7 6.23a2.744 2.744 0 1 1-.003-3.884 2.744 2.744 0 0 1 .001 3.88z"/><path d="M242.309 20.18a28.538 28.538 0 1 0 40.358 0 28.537 28.537 0 0 0-40.358 0zm37.244 2.668a48.554 48.554 0 0 0-1.116 4.903c-.241 1.475-1.728 2.265-3.046 2.679a4.178 4.178 0 0 1 2.2.852 1.879 1.879 0 0 1 .518 1.805 2.209 2.209 0 0 1-1.444 1.552 3.38 3.38 0 0 1-2.62-.152.992.992 0 0 1-.479-.73 1.1 1.1 0 0 1 .702-1.085c.04-.025.09-.052.135-.083a2.693 2.693 0 0 0-1.827.11 1.232 1.232 0 0 1-1.953 1.46l-.305-.305-1.364 1.363a8.3 8.3 0 0 1 1.374 3.495h3.518a1.584 1.584 0 0 1 .255-.17 1.591 1.591 0 0 1 1.994-1.995 1.591 1.591 0 0 1 2.821 0 1.591 1.591 0 0 1 1.995 1.994 1.587 1.587 0 0 1 .854 1.409 1.586 1.586 0 0 1-.854 1.408 1.591 1.591 0 0 1-1.995 1.995 1.591 1.591 0 0 1-2.82 0 1.591 1.591 0 0 1-1.995-1.995 1.578 1.578 0 0 1-.254-.17h-3.519a8.3 8.3 0 0 1-1.373 3.495l1.366 1.366.306-.306a1.232 1.232 0 0 1 1.953 1.46 2.692 2.692 0 0 0 1.833.108l-.141-.08a1.1 1.1 0 0 1-.7-1.087.988.988 0 0 1 .479-.73 3.378 3.378 0 0 1 2.619-.151 2.21 2.21 0 0 1 1.444 1.552 1.882 1.882 0 0 1-.517 1.805 4.184 4.184 0 0 1-2.202.852c1.32.413 2.805 1.203 3.047 2.679a48.648 48.648 0 0 0 1.113 4.904.29.29 0 0 1-.36.36 48.555 48.555 0 0 0-4.908-1.102c-1.475-.243-2.264-1.729-2.679-3.047a4.178 4.178 0 0 1-.853 2.202 1.88 1.88 0 0 1-1.803.517 2.208 2.208 0 0 1-1.552-1.445 3.375 3.375 0 0 1 .15-2.619.99.99 0 0 1 .73-.48 1.1 1.1 0 0 1 1.087.702c.024.041.051.09.082.136a2.693 2.693 0 0 0-.11-1.827 1.232 1.232 0 0 1-1.46-1.953l.306-.306-1.365-1.365a8.3 8.3 0 0 1-3.494 1.373l.004 3.519a1.587 1.587 0 0 1 .17.254 1.591 1.591 0 0 1 1.995 1.995 1.591 1.591 0 0 1 0 2.82 1.591 1.591 0 0 1-1.995 1.995 1.588 1.588 0 0 1-1.409.854 1.589 1.589 0 0 1-1.409-.854 1.591 1.591 0 0 1-1.995-1.994 1.591 1.591 0 0 1 0-2.821 1.591 1.591 0 0 1 1.996-1.995 1.584 1.584 0 0 1 .17-.254V48.2a8.3 8.3 0 0 1-3.495-1.373l-1.37 1.369.306.305a1.232 1.232 0 0 1-1.46 1.953 2.686 2.686 0 0 0-.107 1.832c.023-.043.054-.098.08-.14a1.1 1.1 0 0 1 1.086-.702.992.992 0 0 1 .73.48 3.378 3.378 0 0 1 .15 2.619 2.209 2.209 0 0 1-1.551 1.444 1.879 1.879 0 0 1-1.805-.517 4.179 4.179 0 0 1-.852-2.201c-.414 1.318-1.203 2.804-2.68 3.046a48.548 48.548 0 0 0-4.903 1.113.29.29 0 0 1-.36-.36 48.835 48.835 0 0 0 1.112-4.905c.242-1.475 1.729-2.265 3.047-2.679a4.174 4.174 0 0 1-2.202-.852 1.88 1.88 0 0 1-.517-1.804 2.208 2.208 0 0 1 1.444-1.553 3.378 3.378 0 0 1 2.62.152.991.991 0 0 1 .479.73 1.1 1.1 0 0 1-.7 1.086c-.042.024-.091.051-.137.082a2.693 2.693 0 0 0 1.827-.11 1.232 1.232 0 0 1 1.953-1.46l.305.305 1.364-1.363a8.3 8.3 0 0 1-1.373-3.495l-3.523-.004a1.643 1.643 0 0 1-.255.17 1.592 1.592 0 0 1-1.995 1.995 1.591 1.591 0 0 1-2.824-.004 1.591 1.591 0 0 1-1.995-1.995 1.588 1.588 0 0 1-.854-1.409 1.588 1.588 0 0 1 .854-1.41 1.591 1.591 0 0 1 1.995-1.994 1.591 1.591 0 0 1 2.82 0 1.591 1.591 0 0 1 1.994 1.995 1.606 1.606 0 0 1 .255.17h3.517a8.3 8.3 0 0 1 1.374-3.496l-1.361-1.36-.306.305a1.232 1.232 0 0 1-1.954-1.46 2.685 2.685 0 0 0-1.832-.107c.043.023.098.055.14.079a1.1 1.1 0 0 1 .702 1.087.992.992 0 0 1-.48.73 3.379 3.379 0 0 1-2.612.147 2.207 2.207 0 0 1-1.444-1.551 1.879 1.879 0 0 1 .517-1.804 4.178 4.178 0 0 1 2.202-.853c-1.32-.414-2.805-1.204-3.047-2.68a48.439 48.439 0 0 0-1.112-4.904.3.3 0 0 1 .36-.36 48.406 48.406 0 0 0 4.904 1.111c1.476.243 2.265 1.73 2.68 3.048a4.179 4.179 0 0 1 .852-2.201 1.881 1.881 0 0 1 1.805-.518 2.208 2.208 0 0 1 1.551 1.444 3.382 3.382 0 0 1-.15 2.62.992.992 0 0 1-.73.48 1.1 1.1 0 0 1-1.094-.701c-.023-.04-.051-.09-.081-.135a2.689 2.689 0 0 0 .11 1.827 1.232 1.232 0 0 1 1.46 1.953l-.307.306 1.363 1.363a8.3 8.3 0 0 1 3.495-1.374v-3.518a1.578 1.578 0 0 1-.17-.255 1.591 1.591 0 0 1-1.995-1.994 1.591 1.591 0 0 1 0-2.82 1.591 1.591 0 0 1 1.995-1.995 1.588 1.588 0 0 1 1.41-.854 1.588 1.588 0 0 1 1.408.854 1.591 1.591 0 0 1 1.995 1.995 1.591 1.591 0 0 1 .004 2.824 1.591 1.591 0 0 1-1.994 1.994 1.6 1.6 0 0 1-.17.254v3.518a8.3 8.3 0 0 1 3.495 1.373l1.364-1.364-.305-.306a1.232 1.232 0 0 1 1.46-1.953 2.689 2.689 0 0 0 .109-1.832l-.08.139a1.1 1.1 0 0 1-1.086.7.991.991 0 0 1-.73-.479 3.38 3.38 0 0 1-.151-2.62 2.208 2.208 0 0 1 1.552-1.444 1.88 1.88 0 0 1 1.804.518 4.173 4.173 0 0 1 .852 2.201c.415-1.319 1.205-2.804 2.68-3.047a48.841 48.841 0 0 0 4.904-1.111.29.29 0 0 1 .36.36zM109.032 242.31a28.538 28.538 0 1 0 40.357 0 28.569 28.569 0 0 0-40.357 0zm35.955 35.955a6.35 6.35 0 1 1-.001-8.981 6.358 6.358 0 0 1 0 8.98zm-24.014-13.974h6.436v6.437a9.924 9.924 0 0 0-6.434-6.434zm-7.538-17.578a6.35 6.35 0 1 1 0 8.981 6.357 6.357 0 0 1 0-8.981zm11.533 11.533a9.9 9.9 0 0 0 2.438-4v6.438h-6.44a9.891 9.891 0 0 0 4.002-2.438zm8.486 8.486a9.9 9.9 0 0 0-2.438 4v-6.438l6.437.001a9.891 9.891 0 0 0-4 2.436zm-2.438-6.048v-6.436a9.921 9.921 0 0 0 6.435 6.434zm2.438-16.527a9.893 9.893 0 0 0-2.436 4l-.001-10.514a24.869 24.869 0 0 1 11.598 3.83 9.96 9.96 0 0 0-9.16 2.684zm11.535 2.553a6.351 6.351 0 1 1-8.981 0 6.358 6.358 0 0 1 8.979.002zm-17.583 1.45a9.942 9.942 0 0 0-11.599-6.686 24.862 24.862 0 0 1 11.599-3.83zm-16.525 10.086a9.89 9.89 0 0 0 4.001 2.437h-10.514a24.859 24.859 0 0 1 3.828-11.598 9.959 9.959 0 0 0 2.685 9.161zm3.997 6.045a9.941 9.941 0 0 0-6.683 11.6 24.86 24.86 0 0 1-3.828-11.597zm7.535 4.99a6.35 6.35 0 1 1-8.982 0 6.358 6.358 0 0 1 8.984.003zm2.557 11.538a9.9 9.9 0 0 0 2.437-4l-.001 10.513a24.86 24.86 0 0 1-11.598-3.828 9.959 9.959 0 0 0 9.162-2.685zm6.044-3.997a9.94 9.94 0 0 0 11.597 6.684 24.86 24.86 0 0 1-11.595 3.825zm16.529-10.091a9.9 9.9 0 0 0-3.996-2.44h10.514a24.864 24.864 0 0 1-3.83 11.597 9.961 9.961 0 0 0-2.688-9.157zm-3.997-6.044a9.942 9.942 0 0 0 6.684-11.598 24.868 24.868 0 0 1 3.824 11.595zM176.455 220.93a4.02 4.02 0 1 0-5.684 0 4.02 4.02 0 0 0 5.684 0zM165.528 205.814a38.84 38.84 0 0 1-.407.802l-.084.171c-.225.46-1.28.291-2.182-.661-1.637-1.729-2.224-2.133-3.36-2.155.023 1.135.427 1.722 2.157 3.36.95.898 1.124 1.954.662 2.182l-.172.084s-.084.045-.802.407c-1.573.79-.31 2.516.47 3.074s.617.09.657-.88a1.462 1.462 0 0 1 2.126-1.351 25.515 25.515 0 0 1 3.808 3.344 6.5 6.5 0 0 1 .605-.71 6.51 6.51 0 0 1 .71-.605 25.53 25.53 0 0 1-3.342-3.811 1.462 1.462 0 0 1 1.352-2.126c.966-.042 1.434.12.88-.657s-2.287-2.04-3.078-.468zM184.754 223.972a1.462 1.462 0 0 1-2.12 1.352 25.509 25.509 0 0 1-3.81-3.342 6.509 6.509 0 0 1-.606.712 6.508 6.508 0 0 1-.71.604 25.556 25.556 0 0 1 3.344 3.807 1.462 1.462 0 0 1-1.354 2.123c-.963.045-1.435-.12-.876.661s2.283 2.043 3.075.47c.361-.719.406-.803.406-.802l.084-.172c.225-.459 1.28-.29 2.183.662 1.639 1.73 2.224 2.134 3.36 2.156-.023-1.135-.427-1.721-2.157-3.36-.95-.898-1.12-1.958-.662-2.182l.171-.083s.085-.046.803-.407c1.573-.792.31-2.518-.47-3.075s-.616-.087-.661.876zM168.401 221.982a25.514 25.514 0 0 1-3.807 3.345 1.462 1.462 0 0 1-2.126-1.35c-.041-.967.121-1.435-.657-.88s-2.042 2.282-.47 3.074c.718.362.803.407.802.408l.173.083c.459.224.29 1.28-.663 2.181-1.729 1.639-2.134 2.225-2.156 3.36 1.135-.022 1.722-.426 3.36-2.156.898-.95 1.958-1.12 2.182-.662l.082.172s.046.084.408.802c.791 1.573 2.518.31 3.075-.47s.09-.618-.88-.657a1.462 1.462 0 0 1-1.348-2.123 25.458 25.458 0 0 1 3.344-3.807 6.526 6.526 0 0 1-.71-.606 6.527 6.527 0 0 1-.609-.714z"/><path d="M153.458 197.883a28.538 28.538 0 1 0 40.357 0 28.537 28.537 0 0 0-40.357 0zm38.659 16.196c-.084 1.088-1.934 3.17-5.538 1.817-1.798-.676-2.455-1.261-3.583.254a5.89 5.89 0 0 0-.92 1.91 5.9 5.9 0 0 0 .92 1.909c1.126 1.515 1.78.932 3.583.253 3.604-1.352 5.454.73 5.537 1.817.59 7.66-.631 12.316-1.406 13.09s-5.426 1.993-13.09 1.406c-1.087-.084-3.171-1.934-1.816-5.538l-.253-3.583a5.907 5.907 0 0 0-1.91-.92 5.89 5.89 0 0 0-1.909.92c-1.514 1.127-.933 1.782-.254 3.583 1.354 3.604-.73 5.454-1.816 5.537-7.661.59-12.316-.63-13.09-1.405s-1.994-5.426-1.406-13.09c.083-1.088 1.933-3.17 5.537-1.817 1.799.675 2.456 1.26 3.583-.254a5.9 5.9 0 0 0 .92-1.91 5.9 5.9 0 0 0-.92-1.909c-1.127-1.514-1.78-.932-3.583-.253-3.604 1.353-5.455-.73-5.538-1.816-.59-7.661.63-12.316 1.405-13.09s5.428-1.994 13.092-1.407c1.087.083 3.17 1.934 1.816 5.538-.675 1.798-1.26 2.456.254 3.583a5.883 5.883 0 0 0 1.91.919 5.891 5.891 0 0 0 1.909-.92c1.515-1.127.933-1.781.254-3.583-1.353-3.604.73-5.455 1.817-5.537 7.66-.59 12.315.63 13.09 1.405s1.992 5.427 1.405 13.091z"/><path d="M184.37 206.127c-.9.95-1.956 1.125-2.183.662l-.084-.171s-.046-.085-.407-.803c-.79-1.573-2.517-.309-3.074.47s-.089.618.88.657a1.462 1.462 0 0 1 1.35 2.126 25.457 25.457 0 0 1-3.344 3.808 6.527 6.527 0 0 1 .711.605 6.526 6.526 0 0 1 .605.711 25.508 25.508 0 0 1 3.81-3.342 1.463 1.463 0 0 1 2.127 1.351c.042.967-.12 1.435.657.88s2.04-2.286.468-3.078a49.997 49.997 0 0 1-.803-.406l-.171-.084c-.46-.225-.29-1.28.662-2.182 1.729-1.638 2.133-2.224 2.156-3.36-1.14.026-1.726.43-3.36 2.156zM197.883 153.458a28.538 28.538 0 1 0 40.358 0 28.537 28.537 0 0 0-40.358 0zm19.41 3.784c1.798-3.94 5.877-7.235 7.02-6.928s3.027 5.198 2.615 9.51a14.265 14.265 0 0 1-3.56 7.704 8.088 8.088 0 0 0-6.846-1.843 14.252 14.252 0 0 1 .77-8.443zm4.41 12.755a5.144 5.144 0 1 1-7.273 0 5.143 5.143 0 0 1 7.27.002zm-18.225-3.89c-2.513-3.528-3.327-8.708-2.49-9.545s6.016-.022 9.545 2.49a14.259 14.259 0 0 1 4.89 6.934 8.03 8.03 0 0 0-5.01 5.01 14.258 14.258 0 0 1-6.935-4.89zm-8.74 13.78c-.306-1.143 2.985-5.219 6.929-7.021a14.251 14.251 0 0 1 8.44-.768 8.088 8.088 0 0 0 1.843 6.846 14.265 14.265 0 0 1-7.704 3.56c-4.31.41-9.202-1.475-9.507-2.618zm24.095 10.145c-1.8 3.94-5.878 7.235-7.02 6.928s-3.028-5.198-2.616-9.51a14.263 14.263 0 0 1 3.562-7.704 8.087 8.087 0 0 0 6.841 1.846 14.256 14.256 0 0 1-.767 8.44zm13.815-8.865c2.512 3.528 3.327 8.708 2.49 9.546s-6.016.02-9.545-2.49a14.258 14.258 0 0 1-4.89-6.935 8.024 8.024 0 0 0 5.01-5.01 14.259 14.259 0 0 1 6.934 4.888zm8.738-13.78c.307 1.142-2.985 5.217-6.928 7.02a14.257 14.257 0 0 1-8.443.77 8.087 8.087 0 0 0-1.842-6.845 14.263 14.263 0 0 1 7.704-3.562c4.31-.41 9.204 1.475 9.509 2.617z"/><g transform="rotate(-45 267.037 -203.529)"><path d="M40.007 17.067a11.47 11.47 0 0 0-11.47-11.47c-6.339 0-11.857 4.748-11.857 11.083-6.335 0-11.082 5.523-11.082 11.857a11.469 11.469 0 0 0 11.469 11.47 11.47 11.47 0 0 0 22.94 0 11.47 11.47 0 1 0 0-22.94zm8.234 10.908a1 1 0 0 1-1.059-.121 3.693 3.693 0 0 0-2.154-.779 6.2 6.2 0 0 1 1.97 1.309c.912.848 1.288 1.588 1.12 2.2a1.147 1.147 0 0 1-.908.788 1.268 1.268 0 0 1-1.211-.319 1.68 1.68 0 0 0-1.211-.715 3.009 3.009 0 0 1 1.435 2.483c0 1.233-.738 2.739-1.6 2.739a.761.761 0 0 1-.7-.518 2.829 2.829 0 0 1-.173-1.112 2.146 2.146 0 0 0-.614-1.587 3.206 3.206 0 0 1 .173 1.077c0 1.283-.707 2.852-1.533 2.852a.755.755 0 0 1-.705-.573 3.519 3.519 0 0 1-.166-1.226 1.57 1.57 0 0 0-.5-1.307c-.964-.777-3.293-.27-4.684.033a833.662 833.662 0 0 1-6.129 1.3.367.367 0 0 1-.175-.005 5.863 5.863 0 0 1-3.272-.425c.116.19.235.384.365.592a5.675 5.675 0 0 0 3.288 2.557 12.807 12.807 0 0 1 1.561.7 5.738 5.738 0 0 1 2.479 3.067 6.383 6.383 0 0 1-.3 4.949c-.949 2.03-2.337 2.788-3.319 2.82h-.062a1.15 1.15 0 0 1-1.054-.516 1 1 0 0 1 .122-1.059 3.683 3.683 0 0 0 .778-2.154 6.192 6.192 0 0 1-1.312 1.972c-.848.912-1.588 1.289-2.2 1.12a1.145 1.145 0 0 1-.789-.908 1.267 1.267 0 0 1 .319-1.211 1.68 1.68 0 0 0 .715-1.211 3.01 3.01 0 0 1-2.483 1.435c-1.233 0-2.739-.738-2.739-1.6a.761.761 0 0 1 .518-.7 2.824 2.824 0 0 1 1.112-.173 2.145 2.145 0 0 0 1.587-.614 3.215 3.215 0 0 1-1.077.173c-1.284 0-2.852-.708-2.852-1.533a.753.753 0 0 1 .573-.705 3.511 3.511 0 0 1 1.223-.163 1.565 1.565 0 0 0 1.306-.5c.777-.964.27-3.293-.033-4.684-.521-2.4-1.3-6.129-1.3-6.129a.385.385 0 0 1 0-.175 6.079 6.079 0 0 1-.071-.877 6 6 0 0 1 .5-2.394c-.19.115-.386.235-.592.365a5.676 5.676 0 0 0-2.552 3.284 12.748 12.748 0 0 1-.7 1.56 5.739 5.739 0 0 1-3.067 2.48 6.223 6.223 0 0 1-2.086.362 6.716 6.716 0 0 1-2.863-.663c-2.031-.949-2.788-2.337-2.821-3.319a1.173 1.173 0 0 1 .515-1.12 1 1 0 0 1 1.059.121 3.691 3.691 0 0 0 2.153.779 6.209 6.209 0 0 1-1.975-1.308c-.911-.848-1.288-1.588-1.12-2.2a1.147 1.147 0 0 1 .908-.789 1.265 1.265 0 0 1 1.211.319 1.682 1.682 0 0 0 1.212.715 3.009 3.009 0 0 1-1.434-2.482c0-1.233.738-2.739 1.6-2.739a.762.762 0 0 1 .7.518 2.838 2.838 0 0 1 .173 1.112 2.139 2.139 0 0 0 .611 1.578 3.21 3.21 0 0 1-.171-1.068c0-1.284.708-2.852 1.534-2.852.578 0 .871.6.871 1.8a1.568 1.568 0 0 0 .5 1.307c.964.777 3.293.27 4.684-.033 2.4-.522 6.129-1.3 6.129-1.3a.389.389 0 0 1 .175.006 6.069 6.069 0 0 1 .877-.071 6.006 6.006 0 0 1 2.4.5c-.116-.19-.236-.386-.366-.594a5.677 5.677 0 0 0-3.287-2.556 12.6 12.6 0 0 1-1.56-.7 5.738 5.738 0 0 1-2.48-3.066 6.381 6.381 0 0 1 .3-4.95c.949-2.03 2.336-2.788 3.318-2.82a1.164 1.164 0 0 1 1.116.514 1 1 0 0 1-.118 1.059 3.683 3.683 0 0 0-.778 2.154 6.2 6.2 0 0 1 1.308-1.974c.848-.912 1.59-1.287 2.2-1.12a1.147 1.147 0 0 1 .788.908 1.264 1.264 0 0 1-.319 1.211 1.677 1.677 0 0 0-.714 1.212 3.009 3.009 0 0 1 2.482-1.435c1.233 0 2.74.738 2.74 1.6a.761.761 0 0 1-.519.7 2.824 2.824 0 0 1-1.112.173 2.147 2.147 0 0 0-1.587.614 3.2 3.2 0 0 1 1.077-.173c1.284 0 2.852.707 2.852 1.534 0 .578-.6.871-1.8.871a1.565 1.565 0 0 0-1.306.5c-.777.964-.27 3.293.032 4.684a833.662 833.662 0 0 1 1.3 6.129.394.394 0 0 1-.006.177 5.866 5.866 0 0 1-.426 3.27c.19-.115.386-.236.593-.366a5.677 5.677 0 0 0 2.556-3.287 12.8 12.8 0 0 1 .7-1.56 5.737 5.737 0 0 1 3.066-2.48 6.382 6.382 0 0 1 4.95.3c2.03.949 2.788 2.336 2.82 3.318a1.173 1.173 0 0 1-.51 1.118z"/><path d="M28.537 0a28.537 28.537 0 1 0 28.538 28.537A28.537 28.537 0 0 0 28.537 0zm14.125 42.662a14.372 14.372 0 0 1-28.25 0A14.4 14.4 0 0 1 2.693 28.537c0-7.019 4.671-13.262 11.332-14.512 1.25-6.662 7.493-11.332 14.512-11.332a14.4 14.4 0 0 1 14.125 11.719 14.372 14.372 0 0 1 0 28.25z"/><circle cx="3.982" cy="3.982" r="3.982" transform="rotate(-22.5 77.983 -45.465)"/></g><g transform="rotate(-45 235.623 -279.369)"><path d="M25.366 20.929a10.683 10.683 0 0 0-7.545-3.108 10.683 10.683 0 0 0 3.108 7.545 8.267 8.267 0 0 1 4.437-4.437zM20.929 31.709a10.68 10.68 0 0 0-3.108 7.545 10.682 10.682 0 0 0 7.545-3.107 8.266 8.266 0 0 1-4.437-4.438zM13.538 32.384c-2.199 0-6.433-2.198-6.433-3.846a10.719 10.719 0 0 0 8.007 10.366 13.352 13.352 0 0 1 2.883-7.953c-1.638.887-2.459 1.433-4.457 1.433zM13.538 24.69c2 0 2.819.542 4.456 1.434a13.353 13.353 0 0 1-2.882-7.953 10.718 10.718 0 0 0-8.007 10.365c0-1.648 4.234-3.846 6.433-3.846zM32.384 13.538c0 2-.542 2.819-1.434 4.456a13.357 13.357 0 0 1 7.954-2.883 10.72 10.72 0 0 0-10.367-8.006c1.648 0 3.847 4.234 3.847 6.433zM36.147 25.366a10.682 10.682 0 0 0 3.107-7.545 10.683 10.683 0 0 0-7.545 3.108 8.268 8.268 0 0 1 4.438 4.437z"/><path d="M24.69 13.538c0-2.2 2.2-6.433 3.847-6.433a10.718 10.718 0 0 0-10.366 8.007 13.357 13.357 0 0 1 7.953 2.883c-.892-1.638-1.434-2.459-1.434-4.457zM32.384 43.538c0 2.2-2.2 6.433-3.847 6.433a10.72 10.72 0 0 0 10.367-8.007 13.353 13.353 0 0 1-7.954-2.883c.892 1.638 1.434 2.458 1.434 4.457z"/><path d="M24.69 43.538c0-2 .542-2.82 1.434-4.457a13.352 13.352 0 0 1-7.953 2.883 10.718 10.718 0 0 0 10.366 8.007c-1.648 0-3.847-4.235-3.847-6.433zM41.964 18.171a13.353 13.353 0 0 1-2.883 7.953c1.637-.892 2.458-1.434 4.456-1.434 2.2 0 6.434 2.2 6.434 3.847 0 1.648-4.235 3.847-6.434 3.847-2 0-2.819-.542-4.456-1.433a13.35 13.35 0 0 1 2.883 7.953 10.714 10.714 0 0 0 0-20.733z"/><path d="M28.537 0a28.538 28.538 0 1 0 28.537 28.537A28.537 28.537 0 0 0 28.537 0zm13.2 41.734a13.428 13.428 0 0 1-26.394 0 13.428 13.428 0 0 1 0-26.394 13.428 13.428 0 0 1 26.394 0 13.428 13.428 0 0 1 0 26.394z"/><circle cx="5.77" cy="5.77" r="5.77" transform="rotate(-67.5 34.189 .116)"/><path d="M31.709 36.147a10.683 10.683 0 0 0 7.545 3.107 10.682 10.682 0 0 0-3.107-7.545 8.269 8.269 0 0 1-4.438 4.438z"/></g><path d="M85.624 302.225a.419.419 0 0 1-.42.42h-1.646a.419.419 0 0 1-.42-.42v-1.21a5.6 5.6 0 0 0-4.252 4.253h1.209a.419.419 0 0 1 .42.42v1.646a.419.419 0 0 1-.42.42h-1.21a5.6 5.6 0 0 0 4.254 4.254l.003-1.206a.419.419 0 0 1 .42-.42l1.642-.003a.419.419 0 0 1 .42.42l.001 1.209a5.6 5.6 0 0 0 4.253-4.253h-1.21a.42.42 0 0 1-.42-.42l.005-1.643a.42.42 0 0 1 .42-.42h1.209a5.6 5.6 0 0 0-4.253-4.253zm.7 6.23a2.744 2.744 0 1 1-.003-3.884 2.744 2.744 0 0 1 0 3.88z"/><path d="M64.606 286.736a28.537 28.537 0 1 0 40.358-.001 28.537 28.537 0 0 0-40.358 0zm37.243 2.667a48.821 48.821 0 0 0-1.114 4.902c-.242 1.475-1.728 2.266-3.047 2.68a4.176 4.176 0 0 1 2.201.852 1.88 1.88 0 0 1 .518 1.804 2.209 2.209 0 0 1-1.445 1.552 3.378 3.378 0 0 1-2.619-.151.991.991 0 0 1-.48-.73 1.1 1.1 0 0 1 .702-1.086c.041-.024.09-.052.136-.082a2.693 2.693 0 0 0-1.827.11 1.232 1.232 0 0 1-1.953 1.46l-.306-.306-1.364 1.364a8.3 8.3 0 0 1 1.374 3.495h3.518a1.529 1.529 0 0 1 .255-.17 1.591 1.591 0 0 1 1.994-1.995 1.591 1.591 0 0 1 2.825-.003 1.59 1.59 0 0 1 1.994 1.994 1.587 1.587 0 0 1 .855 1.408 1.586 1.586 0 0 1-.854 1.41 1.591 1.591 0 0 1-1.995 1.994 1.591 1.591 0 0 1-2.82 0 1.591 1.591 0 0 1-1.994-1.994 1.588 1.588 0 0 1-.255-.17H92.63a8.3 8.3 0 0 1-1.374 3.495l1.366 1.365.306-.306a1.232 1.232 0 0 1 1.953 1.46 2.691 2.691 0 0 0 1.832.107c-.043-.023-.097-.055-.14-.079a1.1 1.1 0 0 1-.7-1.087.986.986 0 0 1 .479-.73 3.378 3.378 0 0 1 2.619-.15 2.208 2.208 0 0 1 1.444 1.55 1.881 1.881 0 0 1-.518 1.805 4.178 4.178 0 0 1-2.201.852c1.32.415 2.804 1.205 3.048 2.68a48.651 48.651 0 0 0 1.112 4.904.29.29 0 0 1-.36.36 48.542 48.542 0 0 0-4.912-1.099c-1.475-.242-2.264-1.729-2.68-3.047a4.178 4.178 0 0 1-.852 2.201 1.881 1.881 0 0 1-1.804.519 2.21 2.21 0 0 1-1.552-1.445 3.378 3.378 0 0 1 .151-2.619.985.985 0 0 1 .73-.48 1.1 1.1 0 0 1 1.087.701c.023.04.051.09.082.136a2.7 2.7 0 0 0-.11-1.827 1.232 1.232 0 0 1-1.46-1.953l.306-.306-1.365-1.365a8.3 8.3 0 0 1-3.494 1.373l.003 3.518a1.6 1.6 0 0 1 .17.255 1.591 1.591 0 0 1 1.994 1.994 1.591 1.591 0 0 1 0 2.82 1.591 1.591 0 0 1-1.994 1.995 1.589 1.589 0 0 1-1.41.854 1.589 1.589 0 0 1-1.408-.854 1.591 1.591 0 0 1-1.994-1.994 1.591 1.591 0 0 1 0-2.821 1.591 1.591 0 0 1 1.994-1.995 1.586 1.586 0 0 1 .17-.255v-3.518a8.289 8.289 0 0 1-3.495-1.373l-1.369 1.369.306.305a1.232 1.232 0 0 1-1.46 1.953 2.686 2.686 0 0 0-.108 1.832l.08-.14a1.1 1.1 0 0 1 1.086-.702.991.991 0 0 1 .73.48 3.377 3.377 0 0 1 .151 2.619 2.209 2.209 0 0 1-1.552 1.444 1.88 1.88 0 0 1-1.804-.517 4.18 4.18 0 0 1-.853-2.201c-.414 1.319-1.203 2.804-2.679 3.046a48.82 48.82 0 0 0-4.904 1.112.29.29 0 0 1-.36-.36 48.547 48.547 0 0 0 1.112-4.904c.243-1.476 1.73-2.265 3.047-2.678a4.18 4.18 0 0 1-2.201-.853 1.879 1.879 0 0 1-.518-1.805 2.208 2.208 0 0 1 1.445-1.552 3.377 3.377 0 0 1 2.62.152.991.991 0 0 1 .479.73 1.1 1.1 0 0 1-.703 1.086c-.04.023-.09.052-.135.081a2.691 2.691 0 0 0 1.828-.11 1.232 1.232 0 0 1 1.953-1.46l.305.306 1.363-1.363a8.3 8.3 0 0 1-1.374-3.495l-3.521-.003a1.534 1.534 0 0 1-.255.17 1.591 1.591 0 0 1-1.994 1.994 1.591 1.591 0 0 1-2.82 0 1.591 1.591 0 0 1-1.996-1.994 1.588 1.588 0 0 1-.853-1.41 1.585 1.585 0 0 1 .853-1.408 1.591 1.591 0 0 1 1.995-1.995 1.591 1.591 0 0 1 2.82 0 1.591 1.591 0 0 1 1.995 1.995 1.585 1.585 0 0 1 .254.17h3.517a8.3 8.3 0 0 1 1.374-3.496l-1.364-1.365-.307.307a1.232 1.232 0 0 1-1.953-1.46 2.692 2.692 0 0 0-1.832-.108c.043.023.098.055.141.08a1.1 1.1 0 0 1 .7 1.087.99.99 0 0 1-.479.73 3.378 3.378 0 0 1-2.612.147 2.21 2.21 0 0 1-1.445-1.552 1.881 1.881 0 0 1 .518-1.804 4.178 4.178 0 0 1 2.202-.853c-1.32-.415-2.806-1.204-3.048-2.68a48.535 48.535 0 0 0-1.112-4.905.3.3 0 0 1 .36-.36 48.526 48.526 0 0 0 4.905 1.112c1.475.243 2.265 1.729 2.68 3.048a4.178 4.178 0 0 1 .852-2.202 1.881 1.881 0 0 1 1.804-.517 2.208 2.208 0 0 1 1.552 1.444 3.378 3.378 0 0 1-.152 2.619.99.99 0 0 1-.73.48 1.1 1.1 0 0 1-1.092-.7c-.023-.04-.051-.09-.082-.136a2.694 2.694 0 0 0 .11 1.827 1.232 1.232 0 0 1 1.46 1.953l-.306.307 1.362 1.362a8.3 8.3 0 0 1 3.496-1.374v-3.517a1.588 1.588 0 0 1-.17-.255 1.591 1.591 0 0 1-1.995-1.994 1.591 1.591 0 0 1 0-2.82 1.591 1.591 0 0 1 1.995-1.995 1.588 1.588 0 0 1 1.41-.853 1.588 1.588 0 0 1 1.408.853 1.591 1.591 0 0 1 1.995 1.995 1.59 1.59 0 0 1 0 2.82 1.591 1.591 0 0 1-1.995 1.994 1.534 1.534 0 0 1-.17.255l.001 3.518a8.3 8.3 0 0 1 3.495 1.373l1.364-1.364-.306-.305a1.232 1.232 0 0 1 1.46-1.953 2.687 2.687 0 0 0 .108-1.833 3.979 3.979 0 0 1-.08.141 1.1 1.1 0 0 1-1.086.702.991.991 0 0 1-.73-.48 3.378 3.378 0 0 1-.151-2.619 2.208 2.208 0 0 1 1.552-1.445 1.879 1.879 0 0 1 1.805.518 4.176 4.176 0 0 1 .852 2.201c.413-1.318 1.205-2.804 2.679-3.047a48.549 48.549 0 0 0 4.904-1.112.29.29 0 0 1 .36.36zM197.882 242.311a28.537 28.537 0 1 0 40.359 0 28.569 28.569 0 0 0-40.359 0zm35.955 35.955a6.35 6.35 0 1 1 .003-8.98 6.357 6.357 0 0 1-.003 8.98zm-24.014-13.974h6.437v6.438a9.928 9.928 0 0 0-6.435-6.435zm-7.537-17.578a6.35 6.35 0 1 1 0 8.981 6.358 6.358 0 0 1 0-8.98zm11.533 11.534a9.9 9.9 0 0 0 2.438-4v6.437h-6.439a9.89 9.89 0 0 0 4.001-2.437zm8.485 8.485a9.9 9.9 0 0 0-2.437 4v-6.437l6.437-.001a9.9 9.9 0 0 0-4 2.437zm-2.437-6.048v-6.437a9.928 9.928 0 0 0 6.434 6.435zm2.438-16.526a9.9 9.9 0 0 0-2.437 4v-10.515a24.861 24.861 0 0 1 11.597 3.83 9.958 9.958 0 0 0-9.16 2.685zm11.534 2.553a6.35 6.35 0 1 1-8.981 0 6.357 6.357 0 0 1 8.98.001zm-17.582 1.449a9.941 9.941 0 0 0-11.6-6.686 24.859 24.859 0 0 1 11.6-3.829zm-16.524 10.086a9.9 9.9 0 0 0 4 2.437h-10.515a24.862 24.862 0 0 1 3.829-11.598 9.958 9.958 0 0 0 2.686 9.161zm3.996 6.044a9.941 9.941 0 0 0-6.683 11.601 24.868 24.868 0 0 1-3.828-11.597zm7.535 4.99a6.35 6.35 0 1 1-8.98 0 6.357 6.357 0 0 1 8.982.004zm2.557 11.539a9.9 9.9 0 0 0 2.437-4l-.001 10.513a24.868 24.868 0 0 1-11.598-3.828 9.96 9.96 0 0 0 9.162-2.685zm6.043-3.997a9.943 9.943 0 0 0 11.598 6.684 24.86 24.86 0 0 1-11.596 3.825zm16.53-10.09a9.893 9.893 0 0 0-4-2.437l10.514-.001a24.858 24.858 0 0 1-3.83 11.597 9.959 9.959 0 0 0-2.684-9.16zm-3.998-6.044a9.941 9.941 0 0 0 6.685-11.598 24.855 24.855 0 0 1 3.824 11.594zM265.307 220.93a4.02 4.02 0 1 0-5.685 0 4.02 4.02 0 0 0 5.685 0zM254.38 205.815a40.6 40.6 0 0 1-.406.802l-.084.172c-.225.459-1.28.29-2.183-.662-1.638-1.729-2.225-2.133-3.36-2.156.023 1.135.427 1.722 2.157 3.36.948.9 1.123 1.955.661 2.182l-.171.084s-.084.046-.803.406c-1.572.792-.31 2.518.47 3.075s.618.089.657-.88a1.462 1.462 0 0 1 2.127-1.351 25.521 25.521 0 0 1 3.808 3.345 6.509 6.509 0 0 1 .606-.71 6.509 6.509 0 0 1 .71-.606 25.572 25.572 0 0 1-3.343-3.81 1.462 1.462 0 0 1 1.351-2.127c.967-.041 1.435.121.88-.657s-2.286-2.039-3.077-.467zM273.605 223.973a1.463 1.463 0 0 1-2.12 1.351 25.548 25.548 0 0 1-3.81-3.34 6.508 6.508 0 0 1-.606.71 6.509 6.509 0 0 1-.71.605 25.506 25.506 0 0 1 3.344 3.807 1.462 1.462 0 0 1-1.354 2.123c-.963.045-1.435-.12-.877.66s2.284 2.043 3.076.47c.36-.718.405-.802.406-.802l.084-.171c.224-.46 1.28-.29 2.182.662 1.638 1.729 2.224 2.134 3.36 2.156-.023-1.135-.427-1.722-2.157-3.36-.95-.899-1.12-1.958-.662-2.181l.171-.084s.084-.046.803-.407c1.572-.791.31-2.518-.47-3.075s-.615-.086-.66.876zM257.253 221.983a25.507 25.507 0 0 1-3.808 3.345 1.463 1.463 0 0 1-2.127-1.35c-.041-.967.121-1.436-.656-.88s-2.043 2.283-.47 3.074c.72.36.804.406.803.407l.171.083c.46.224.291 1.28-.661 2.182-1.73 1.64-2.134 2.225-2.156 3.36 1.135-.022 1.72-.426 3.36-2.156.898-.95 1.958-1.122 2.181-.662l.084.172s.046.083.406.801c.792 1.574 2.518.31 3.075-.47s.09-.617-.88-.657a1.462 1.462 0 0 1-1.348-2.122 25.454 25.454 0 0 1 3.345-3.807 6.522 6.522 0 0 1-.711-.606 6.505 6.505 0 0 1-.608-.714z"/><path d="M242.309 197.885a28.537 28.537 0 1 0 40.358 0 28.537 28.537 0 0 0-40.358 0zm38.66 16.195c-.084 1.087-1.935 3.17-5.538 1.816-1.798-.675-2.456-1.26-3.585.254a5.9 5.9 0 0 0-.919 1.91 5.9 5.9 0 0 0 .92 1.909c1.127 1.515 1.781.933 3.583.254 3.605-1.353 5.455.73 5.537 1.817.59 7.66-.63 12.315-1.405 13.09s-5.427 1.992-13.09 1.405c-1.088-.083-3.17-1.934-1.817-5.537l-.26-3.58a5.9 5.9 0 0 0-1.91-.92 5.89 5.89 0 0 0-1.908.92c-1.516 1.127-.934 1.781-.255 3.583 1.353 3.604-.73 5.454-1.816 5.537-7.661.59-12.315-.63-13.09-1.406s-1.992-5.427-1.406-13.09c.083-1.086 1.934-3.17 5.537-1.816 1.798.675 2.456 1.26 3.584-.255a5.89 5.89 0 0 0 .919-1.909 5.9 5.9 0 0 0-.92-1.909c-1.126-1.515-1.781-.933-3.582-.254-3.604 1.353-5.455-.73-5.537-1.816-.59-7.661.63-12.315 1.405-13.09s5.427-1.993 13.09-1.406c1.088.083 3.17 1.933 1.817 5.537-.676 1.798-1.261 2.456.254 3.583a5.883 5.883 0 0 0 1.909.92 5.89 5.89 0 0 0 1.909-.92c1.515-1.128.933-1.782.255-3.583-1.354-3.605.73-5.456 1.816-5.538 7.66-.59 12.316.63 13.09 1.405s1.998 5.426 1.412 13.089z"/><path d="M273.22 206.128c-.899.95-1.955 1.124-2.182.661l-.084-.17s-.046-.085-.407-.802c-.79-1.574-2.517-.31-3.075.469s-.089.618.88.657a1.463 1.463 0 0 1 1.352 2.126 25.516 25.516 0 0 1-3.345 3.807 6.514 6.514 0 0 1 .711.606 6.531 6.531 0 0 1 .605.71 25.459 25.459 0 0 1 3.81-3.342 1.462 1.462 0 0 1 2.12 1.352c.042.968-.12 1.435.657.88s2.046-2.287.474-3.078a41.72 41.72 0 0 1-.801-.407c-.015-.007-.058-.027-.172-.084-.46-.224-.29-1.28.662-2.182 1.728-1.638 2.134-2.224 2.156-3.36-1.14.027-1.726.43-3.361 2.157zM286.735 153.459a28.537 28.537 0 1 0 40.357 0 28.537 28.537 0 0 0-40.357 0zm19.408 3.784c1.8-3.94 5.878-7.234 7.022-6.928s3.027 5.198 2.615 9.51a14.264 14.264 0 0 1-3.56 7.705 8.091 8.091 0 0 0-6.847-1.843 14.264 14.264 0 0 1 .77-8.444zM310.555 170a5.143 5.143 0 1 1-7.273 0 5.143 5.143 0 0 1 7.268.002zm-18.226-3.891c-2.512-3.528-3.326-8.71-2.49-9.546s6.017-.022 9.546 2.49a14.27 14.27 0 0 1 4.89 6.934 8.026 8.026 0 0 0-5.011 5.011 14.27 14.27 0 0 1-6.935-4.89zm-8.74 13.78c-.306-1.144 2.99-5.222 6.929-7.022a14.263 14.263 0 0 1 8.44-.767 8.091 8.091 0 0 0 1.843 6.846 14.264 14.264 0 0 1-7.704 3.56c-4.309.409-9.202-1.475-9.508-2.617zm24.096 10.145c-1.8 3.94-5.878 7.235-7.022 6.928s-3.027-5.198-2.615-9.51a14.262 14.262 0 0 1 3.56-7.704 8.091 8.091 0 0 0 6.844 1.845 14.263 14.263 0 0 1-.767 8.441zm13.815-8.865c2.512 3.528 3.326 8.709 2.49 9.545s-6.018.022-9.546-2.49a14.27 14.27 0 0 1-4.89-6.933 8.032 8.032 0 0 0 5.01-5.011 14.27 14.27 0 0 1 6.934 4.888zm8.737-13.78c.306 1.143-2.989 5.221-6.928 7.021a14.264 14.264 0 0 1-8.443.77 8.09 8.09 0 0 0-1.843-6.847 14.268 14.268 0 0 1 7.704-3.56c4.312-.412 9.205 1.473 9.51 2.615z"/><g transform="rotate(-45 311.463 -310.782)"><path d="M40.008 17.067a11.47 11.47 0 0 0-11.47-11.47c-6.34 0-11.857 4.748-11.857 11.083-6.335 0-11.083 5.522-11.083 11.857a11.47 11.47 0 0 0 11.47 11.47 11.47 11.47 0 1 0 22.94 0 11.47 11.47 0 1 0 0-22.94zm8.233 10.908a1 1 0 0 1-1.059-.122 3.7 3.7 0 0 0-2.155-.779 6.2 6.2 0 0 1 1.971 1.309c.912.848 1.289 1.589 1.12 2.2a1.144 1.144 0 0 1-.907.789A1.269 1.269 0 0 1 46 31.053a1.681 1.681 0 0 0-1.212-.715 3.008 3.008 0 0 1 1.435 2.483c0 1.233-.738 2.739-1.6 2.739a.761.761 0 0 1-.7-.519 2.833 2.833 0 0 1-.173-1.112 2.145 2.145 0 0 0-.614-1.587 3.219 3.219 0 0 1 .173 1.077c0 1.284-.708 2.852-1.534 2.852a.754.754 0 0 1-.7-.573 3.516 3.516 0 0 1-.166-1.226 1.567 1.567 0 0 0-.5-1.307c-.964-.777-3.293-.27-4.684.032a833.662 833.662 0 0 1-6.129 1.3.37.37 0 0 1-.175 0 5.861 5.861 0 0 1-3.271-.425c.115.19.235.384.365.592a5.677 5.677 0 0 0 3.283 2.554 12.664 12.664 0 0 1 1.561.7 5.735 5.735 0 0 1 2.48 3.066 6.385 6.385 0 0 1-.3 4.949c-.949 2.031-2.337 2.789-3.319 2.821h-.062a1.148 1.148 0 0 1-1.053-.516 1 1 0 0 1 .121-1.059 3.688 3.688 0 0 0 .772-2.152 6.207 6.207 0 0 1-1.307 1.97c-.848.912-1.588 1.289-2.2 1.12a1.147 1.147 0 0 1-.788-.908 1.266 1.266 0 0 1 .318-1.211 1.683 1.683 0 0 0 .716-1.211 3.01 3.01 0 0 1-2.483 1.435c-1.233 0-2.739-.738-2.739-1.6a.762.762 0 0 1 .519-.7 2.837 2.837 0 0 1 1.112-.173 2.147 2.147 0 0 0 1.587-.614 3.223 3.223 0 0 1-1.077.173c-1.283 0-2.852-.708-2.852-1.534a.754.754 0 0 1 .573-.7 3.515 3.515 0 0 1 1.221-.167 1.568 1.568 0 0 0 1.307-.5c.777-.964.27-3.293-.033-4.684-.522-2.4-1.3-6.129-1.3-6.129a.4.4 0 0 1 0-.175 5.871 5.871 0 0 1 .426-3.271c-.19.115-.385.235-.592.365a5.677 5.677 0 0 0-2.55 3.284 12.751 12.751 0 0 1-.7 1.56 5.738 5.738 0 0 1-3.067 2.479 6.207 6.207 0 0 1-2.086.362 6.708 6.708 0 0 1-2.863-.663c-2.03-.949-2.788-2.336-2.82-3.319a1.172 1.172 0 0 1 .514-1.119 1 1 0 0 1 1.059.121 3.691 3.691 0 0 0 2.154.779 6.207 6.207 0 0 1-1.974-1.309c-.912-.848-1.288-1.588-1.12-2.2a1.147 1.147 0 0 1 .907-.789 1.267 1.267 0 0 1 1.212.318 1.684 1.684 0 0 0 1.212.716 3.01 3.01 0 0 1-1.435-2.483c0-1.233.738-2.74 1.6-2.74a.761.761 0 0 1 .7.519 2.822 2.822 0 0 1 .173 1.112 2.139 2.139 0 0 0 .61 1.579 3.215 3.215 0 0 1-.17-1.068c0-1.284.708-2.852 1.533-2.852.579 0 .872.605.872 1.8a1.565 1.565 0 0 0 .5 1.306c.964.778 3.293.271 4.684-.032 2.4-.522 6.129-1.3 6.129-1.3a.392.392 0 0 1 .176.006 5.848 5.848 0 0 1 3.271.426c-.116-.19-.236-.386-.366-.594a5.676 5.676 0 0 0-3.286-2.556 12.647 12.647 0 0 1-1.56-.7 5.737 5.737 0 0 1-2.48-3.066 6.384 6.384 0 0 1 .3-4.95c.949-2.03 2.336-2.788 3.319-2.82a1.163 1.163 0 0 1 1.116.514 1 1 0 0 1-.116 1.063 3.685 3.685 0 0 0-.779 2.154 6.2 6.2 0 0 1 1.308-1.974c.849-.912 1.59-1.287 2.2-1.12a1.146 1.146 0 0 1 .789.908 1.265 1.265 0 0 1-.319 1.211 1.68 1.68 0 0 0-.715 1.212 3.01 3.01 0 0 1 2.483-1.435c1.233 0 2.739.738 2.739 1.6a.76.76 0 0 1-.518.7 2.825 2.825 0 0 1-1.112.173 2.148 2.148 0 0 0-1.588.614 3.205 3.205 0 0 1 1.077-.173c1.283 0 2.852.707 2.852 1.533 0 .579-.6.871-1.8.871a1.567 1.567 0 0 0-1.307.5c-.777.964-.271 3.293.033 4.685a880.846 880.846 0 0 1 1.3 6.129.377.377 0 0 1-.005.177 5.874 5.874 0 0 1-.425 3.27c.19-.116.385-.236.592-.366a5.674 5.674 0 0 0 2.556-3.287 12.672 12.672 0 0 1 .7-1.56 5.735 5.735 0 0 1 3.066-2.48 6.384 6.384 0 0 1 4.95.3c2.03.949 2.788 2.337 2.82 3.319a1.173 1.173 0 0 1-.51 1.117z"/><path d="M28.538 0a28.537 28.537 0 1 0 28.537 28.537A28.537 28.537 0 0 0 28.538 0zm14.125 42.662a14.372 14.372 0 0 1-28.25 0 14.4 14.4 0 0 1-11.72-14.125c0-7.019 4.671-13.263 11.333-14.512 1.249-6.662 7.493-11.333 14.512-11.333a14.4 14.4 0 0 1 14.125 11.72 14.372 14.372 0 0 1 0 28.25z"/><circle cx="3.982" cy="3.982" r="3.982" transform="rotate(-22.5 77.983 -45.465)"/></g><g transform="rotate(-45 468.532 68.416)"><path d="M25.366 20.928a10.683 10.683 0 0 0-7.545-3.107 10.683 10.683 0 0 0 3.108 7.545 8.268 8.268 0 0 1 4.437-4.438zM20.929 31.709a10.683 10.683 0 0 0-3.108 7.545 10.683 10.683 0 0 0 7.545-3.108 8.265 8.265 0 0 1-4.437-4.437zM13.538 32.384c-2.199 0-6.433-2.198-6.433-3.846a10.718 10.718 0 0 0 8.007 10.365 13.353 13.353 0 0 1 2.883-7.953c-1.638.888-2.459 1.434-4.457 1.434zM13.538 24.691c2 0 2.819.542 4.456 1.434a13.353 13.353 0 0 1-2.882-7.954 10.719 10.719 0 0 0-8.007 10.366c0-1.648 4.234-3.846 6.433-3.846zM32.384 13.538c0 2-.542 2.819-1.434 4.456a13.358 13.358 0 0 1 7.954-2.883 10.72 10.72 0 0 0-10.367-8.007c1.648 0 3.847 4.235 3.847 6.434zM36.147 25.366a10.683 10.683 0 0 0 3.107-7.545 10.683 10.683 0 0 0-7.545 3.107 8.27 8.27 0 0 1 4.438 4.438z"/><path d="M24.69 13.538c0-2.2 2.2-6.433 3.847-6.434a10.719 10.719 0 0 0-10.366 8.007 13.358 13.358 0 0 1 7.953 2.883c-.892-1.638-1.434-2.458-1.434-4.456zM32.384 43.537c0 2.2-2.2 6.433-3.847 6.433a10.72 10.72 0 0 0 10.367-8.006 13.358 13.358 0 0 1-7.954-2.883c.892 1.637 1.434 2.458 1.434 4.456zM24.69 43.537c0-2 .542-2.819 1.434-4.456a13.358 13.358 0 0 1-7.953 2.883 10.719 10.719 0 0 0 10.366 8.007c-1.648-.001-3.847-4.235-3.847-6.434zM41.963 18.171a13.353 13.353 0 0 1-2.882 7.953c1.637-.891 2.457-1.433 4.456-1.433 2.2 0 6.434 2.2 6.434 3.847 0 1.648-4.235 3.847-6.434 3.847-2 0-2.819-.542-4.456-1.434a13.357 13.357 0 0 1 2.882 7.953 10.714 10.714 0 0 0 0-20.733z"/><path d="M28.537 0a28.537 28.537 0 1 0 28.537 28.537A28.537 28.537 0 0 0 28.537 0zm13.2 41.734a13.428 13.428 0 0 1-26.394 0 13.428 13.428 0 0 1 0-26.394 13.428 13.428 0 0 1 26.394 0 13.428 13.428 0 0 1 0 26.394z"/><circle cx="5.77" cy="5.77" r="5.77" transform="rotate(-67.5 34.189 .116)"/><path d="M31.709 36.146a10.683 10.683 0 0 0 7.545 3.108 10.683 10.683 0 0 0-3.107-7.545 8.268 8.268 0 0 1-4.438 4.437z"/></g><path d="M174.476 302.226a.421.421 0 0 1-.42.42h-1.646a.419.419 0 0 1-.42-.42v-1.21a5.6 5.6 0 0 0-4.254 4.254h1.21a.42.42 0 0 1 .42.42v1.646a.421.421 0 0 1-.42.42h-1.209a5.6 5.6 0 0 0 4.253 4.252V310.8a.42.42 0 0 1 .42-.42h1.646a.42.42 0 0 1 .42.42v1.21a5.6 5.6 0 0 0 4.252-4.253h-1.208a.42.42 0 0 1-.42-.42v-1.648a.42.42 0 0 1 .42-.42h1.209a5.6 5.6 0 0 0-4.253-4.252zm.7 6.23a2.744 2.744 0 1 1-.003-3.884 2.744 2.744 0 0 1 0 3.88z"/><path d="M153.457 286.736a28.537 28.537 0 1 0 40.357 0 28.537 28.537 0 0 0-40.357 0zm37.243 2.668a48.6 48.6 0 0 0-1.114 4.903c-.243 1.475-1.729 2.265-3.048 2.68a4.175 4.175 0 0 1 2.202.851 1.882 1.882 0 0 1 .518 1.805 2.209 2.209 0 0 1-1.445 1.552 3.377 3.377 0 0 1-2.619-.152.986.986 0 0 1-.48-.73 1.1 1.1 0 0 1 .701-1.086c.041-.024.09-.051.138-.082a2.7 2.7 0 0 0-1.828.11 1.232 1.232 0 0 1-1.953 1.459l-.306-.306-1.364 1.365a8.3 8.3 0 0 1 1.372 3.494h3.519a1.634 1.634 0 0 1 .254-.17 1.592 1.592 0 0 1 1.996-1.995 1.591 1.591 0 0 1 2.82 0 1.591 1.591 0 0 1 1.994 1.994 1.59 1.59 0 0 1 .854 1.409 1.586 1.586 0 0 1-.853 1.41 1.591 1.591 0 0 1-1.995 1.994 1.592 1.592 0 0 1-2.82 0 1.591 1.591 0 0 1-1.994-1.995 1.592 1.592 0 0 1-.254-.17h-3.52a8.3 8.3 0 0 1-1.373 3.494l1.368 1.367.305-.305a1.231 1.231 0 0 1 1.953 1.46 2.692 2.692 0 0 0 1.832.107 4.454 4.454 0 0 1-.139-.08 1.094 1.094 0 0 1-.701-1.087.988.988 0 0 1 .478-.73 3.378 3.378 0 0 1 2.62-.15 2.207 2.207 0 0 1 1.444 1.552 1.881 1.881 0 0 1-.518 1.804 4.18 4.18 0 0 1-2.201.853c1.319.414 2.805 1.204 3.047 2.68a48.256 48.256 0 0 0 1.112 4.904.291.291 0 0 1-.36.36 48.326 48.326 0 0 0-4.907-1.103c-1.476-.242-2.265-1.73-2.68-3.048a4.18 4.18 0 0 1-.852 2.202 1.88 1.88 0 0 1-1.805.517 2.207 2.207 0 0 1-1.551-1.443 3.378 3.378 0 0 1 .15-2.62.991.991 0 0 1 .73-.48 1.1 1.1 0 0 1 1.087.702c.023.04.051.09.081.136a2.7 2.7 0 0 0-.11-1.828 1.231 1.231 0 0 1-1.458-1.96l.306-.306-1.361-1.361a8.3 8.3 0 0 1-3.495 1.373v3.521a1.661 1.661 0 0 1 .17.255 1.591 1.591 0 0 1 1.994 1.994 1.592 1.592 0 0 1 0 2.82 1.592 1.592 0 0 1-1.995 1.996 1.587 1.587 0 0 1-1.41.854 1.59 1.59 0 0 1-1.408-.855 1.591 1.591 0 0 1-1.994-1.994 1.591 1.591 0 0 1 0-2.82 1.592 1.592 0 0 1 1.994-1.995 1.582 1.582 0 0 1 .17-.254v-3.518a8.3 8.3 0 0 1-3.494-1.374l-1.368 1.369.305.305a1.232 1.232 0 0 1-1.459 1.953 2.688 2.688 0 0 0-.108 1.832l.079-.14a1.1 1.1 0 0 1 1.087-.7.986.986 0 0 1 .73.479 3.377 3.377 0 0 1 .15 2.62 2.209 2.209 0 0 1-1.551 1.444 1.882 1.882 0 0 1-1.805-.518 4.178 4.178 0 0 1-.853-2.202c-.413 1.319-1.202 2.805-2.679 3.047a48.6 48.6 0 0 0-4.904 1.112.29.29 0 0 1-.36-.36 48.506 48.506 0 0 0 1.112-4.904c.243-1.476 1.728-2.266 3.047-2.68a4.179 4.179 0 0 1-2.201-.851 1.882 1.882 0 0 1-.518-1.805 2.21 2.21 0 0 1 1.446-1.551 3.375 3.375 0 0 1 2.619.151.987.987 0 0 1 .48.73 1.1 1.1 0 0 1-.702 1.086c-.04.023-.09.05-.136.082a2.694 2.694 0 0 0 1.827-.11 1.232 1.232 0 0 1 1.953-1.46l.306.306 1.364-1.364a8.3 8.3 0 0 1-1.374-3.495l-3.523-.005a1.579 1.579 0 0 1-.255.17 1.591 1.591 0 0 1-1.994 1.995 1.591 1.591 0 0 1-2.82 0 1.591 1.591 0 0 1-1.995-1.995 1.589 1.589 0 0 1-.854-1.409 1.585 1.585 0 0 1 .854-1.408 1.592 1.592 0 0 1 1.995-1.996 1.591 1.591 0 0 1 2.82 0 1.592 1.592 0 0 1 1.995 1.995 1.583 1.583 0 0 1 .254.17h3.517a8.3 8.3 0 0 1 1.374-3.495l-1.366-1.366-.299.298a1.231 1.231 0 0 1-1.953-1.459 2.692 2.692 0 0 0-1.832-.108c.043.023.098.055.14.08a1.093 1.093 0 0 1 .702 1.087.989.989 0 0 1-.479.729 3.377 3.377 0 0 1-2.62.156 2.208 2.208 0 0 1-1.444-1.552 1.881 1.881 0 0 1 .517-1.805 4.18 4.18 0 0 1 2.202-.853c-1.319-.413-2.805-1.202-3.047-2.679a48.555 48.555 0 0 0-1.112-4.904.3.3 0 0 1 .36-.36 48.546 48.546 0 0 0 4.904 1.112c1.477.242 2.265 1.729 2.68 3.047a4.18 4.18 0 0 1 .852-2.202 1.882 1.882 0 0 1 1.805-.518 2.208 2.208 0 0 1 1.552 1.445 3.377 3.377 0 0 1-.151 2.62.99.99 0 0 1-.73.479 1.094 1.094 0 0 1-1.086-.702c-.024-.04-.052-.09-.082-.136a2.7 2.7 0 0 0 .11 1.828 1.231 1.231 0 0 1 1.459 1.953l-.306.306 1.364 1.363a8.3 8.3 0 0 1 3.494-1.373v-3.518a1.581 1.581 0 0 1-.17-.254 1.592 1.592 0 0 1-1.994-1.995 1.591 1.591 0 0 1 0-2.82 1.592 1.592 0 0 1 1.995-1.995 1.587 1.587 0 0 1 1.409-.854 1.589 1.589 0 0 1 1.408.854 1.591 1.591 0 0 1 1.995 1.995 1.591 1.591 0 0 1-.004 2.824 1.591 1.591 0 0 1-1.994 1.994 1.58 1.58 0 0 1-.17.255v3.517a8.3 8.3 0 0 1 3.495 1.374l1.364-1.364-.307-.306a1.232 1.232 0 0 1 1.46-1.953 2.688 2.688 0 0 0 .108-1.832 3.979 3.979 0 0 1-.08.14 1.1 1.1 0 0 1-1.086.702.987.987 0 0 1-.73-.48 3.375 3.375 0 0 1-.151-2.618 2.208 2.208 0 0 1 1.551-1.446 1.882 1.882 0 0 1 1.805.518 4.18 4.18 0 0 1 .851 2.202c.415-1.32 1.205-2.805 2.68-3.048a48.509 48.509 0 0 0 4.904-1.112.29.29 0 0 1 .36.36zM286.735 242.309a28.538 28.538 0 1 0 40.358 0 28.57 28.57 0 0 0-40.358 0zm35.955 35.955a6.35 6.35 0 1 1 0-8.981 6.358 6.358 0 0 1 0 8.98zm-24.014-13.974h6.437l-.003 6.441a9.923 9.923 0 0 0-6.435-6.435zm-7.538-17.579a6.351 6.351 0 1 1 0 8.982 6.357 6.357 0 0 1 0-8.981zm11.534 11.535a9.89 9.89 0 0 0 2.437-4.001v6.439l-6.438-.001a9.9 9.9 0 0 0 4.002-2.437zm8.485 8.485a9.9 9.9 0 0 0-2.437 4v-6.437h6.437a9.892 9.892 0 0 0-4 2.436zm-2.438-6.047v-6.437a9.925 9.925 0 0 0 6.434 6.435zm2.44-16.526a9.9 9.9 0 0 0-2.442 3.997V237.64a24.862 24.862 0 0 1 11.597 3.83 9.959 9.959 0 0 0-9.156 2.687zm11.533 2.553a6.35 6.35 0 1 1-8.981 0 6.357 6.357 0 0 1 8.98.002zm-17.582 1.45a9.942 9.942 0 0 0-11.6-6.688 24.87 24.87 0 0 1 11.6-3.829zm-16.525 10.085a9.9 9.9 0 0 0 4 2.437h-10.514a24.856 24.856 0 0 1 3.829-11.599 9.96 9.96 0 0 0 2.685 9.162zm3.997 6.044a9.942 9.942 0 0 0-6.683 11.602 24.859 24.859 0 0 1-3.828-11.598zm7.535 4.99a6.351 6.351 0 1 1-8.981 0 6.358 6.358 0 0 1 8.983.004zm2.556 11.539a9.9 9.9 0 0 0 2.437-4.001l-.001 10.514a24.858 24.858 0 0 1-11.598-3.828 9.958 9.958 0 0 0 9.162-2.685zm6.043-3.998a9.941 9.941 0 0 0 11.598 6.685 24.865 24.865 0 0 1-11.597 3.83zm16.53-10.09a9.891 9.891 0 0 0-4-2.437h10.514a24.859 24.859 0 0 1-3.832 11.596 9.96 9.96 0 0 0-2.682-9.16zm-3.997-6.044a9.94 9.94 0 0 0 6.679-11.6 24.861 24.861 0 0 1 3.83 11.597z"/><g><path d="M354.159 220.93a4.02 4.02 0 1 0-5.685 0 4.02 4.02 0 0 0 5.685 0zM343.232 205.815a73.53 73.53 0 0 1-.407.803l-.083.17c-.224.46-1.28.291-2.182-.661-1.64-1.73-2.226-2.133-3.36-2.155.021 1.135.425 1.72 2.155 3.36.95.897 1.125 1.954.662 2.181l-.17.084s-.086.045-.803.406c-1.574.792-.31 2.517.47 3.075s.616.09.655-.88a1.462 1.462 0 0 1 2.127-1.35 25.47 25.47 0 0 1 3.808 3.345 6.509 6.509 0 0 1 .605-.711 6.518 6.518 0 0 1 .712-.606 25.465 25.465 0 0 1-3.343-3.81 1.462 1.462 0 0 1 1.35-2.127c.967-.041 1.435.12.88-.657s-2.286-2.04-3.076-.467zM362.457 223.973a1.462 1.462 0 0 1-2.12 1.351 25.446 25.446 0 0 1-3.81-3.34 6.526 6.526 0 0 1-.606.71 6.518 6.518 0 0 1-.71.605 25.45 25.45 0 0 1 3.344 3.807 1.462 1.462 0 0 1-1.354 2.123c-.963.045-1.435-.12-.876.66s2.283 2.043 3.075.47c.362-.718.406-.802.407-.801l.083-.172c.225-.46 1.28-.29 2.182.662 1.638 1.729 2.224 2.134 3.36 2.156-.023-1.135-.427-1.722-2.157-3.36-.95-.899-1.12-1.958-.661-2.182l.171-.083s.085-.046.802-.407c1.574-.791.31-2.518-.47-3.075s-.614-.087-.66.876zM346.105 221.982a25.561 25.561 0 0 1-3.807 3.345 1.462 1.462 0 0 1-2.126-1.351c-.042-.967.121-1.435-.657-.88s-2.043 2.284-.47 3.075c.718.36.803.405.803.406l.17.084c.46.224.29 1.28-.661 2.182-1.73 1.638-2.134 2.225-2.155 3.36 1.134-.023 1.721-.426 3.359-2.156.9-.949 1.958-1.12 2.182-.662l.084.172s.046.083.406.802c.792 1.572 2.518.31 3.075-.47s.09-.618-.88-.657a1.462 1.462 0 0 1-1.348-2.124 25.515 25.515 0 0 1 3.344-3.807 6.506 6.506 0 0 1-.71-.606 6.505 6.505 0 0 1-.609-.713z"/><path d="M331.16 197.884a28.538 28.538 0 1 0 40.359 0 28.537 28.537 0 0 0-40.359 0zm38.66 16.195c-.084 1.088-1.934 3.17-5.538 1.817-1.799-.675-2.455-1.261-3.583.253a5.89 5.89 0 0 0-.919 1.91 5.906 5.906 0 0 0 .92 1.909c1.127 1.515 1.785.93 3.584.254 3.604-1.353 5.454.73 5.537 1.816.59 7.661-.63 12.317-1.405 13.09s-5.428 1.994-13.091 1.407c-1.087-.085-3.17-1.934-1.817-5.538l-.254-3.584a5.9 5.9 0 0 0-1.909-.92 5.89 5.89 0 0 0-1.91.92c-1.514 1.127-.932 1.782-.254 3.584 1.353 3.604-.73 5.454-1.816 5.537-7.661.59-12.316-.632-13.09-1.406s-1.993-5.426-1.406-13.09c.084-1.087 1.933-3.17 5.537-1.816 1.799.675 2.457 1.26 3.584-.255a5.89 5.89 0 0 0 .92-1.91 5.891 5.891 0 0 0-.92-1.908c-1.128-1.516-1.782-.934-3.584-.254-3.604 1.353-5.455-.73-5.538-1.817-.59-7.66.632-12.315 1.406-13.09s5.428-1.992 13.09-1.405c1.088.083 3.17 1.933 1.817 5.537-.676 1.798-1.261 2.456.253 3.584a5.884 5.884 0 0 0 1.91.92 5.89 5.89 0 0 0 1.909-.92c1.515-1.126.933-1.78.254-3.583-1.353-3.604.73-5.454 1.816-5.537 7.661-.59 12.315.63 13.09 1.406s1.994 5.425 1.407 13.09z"/><path d="M362.072 206.128c-.9.949-1.955 1.124-2.182.661l-.084-.17c-.007-.014-.046-.085-.406-.803-.79-1.573-2.518-.31-3.075.47s-.09.618.88.657a1.462 1.462 0 0 1 1.351 2.126 25.561 25.561 0 0 1-3.344 3.807 6.514 6.514 0 0 1 .71.605 6.515 6.515 0 0 1 .605.711 25.566 25.566 0 0 1 3.81-3.342 1.462 1.462 0 0 1 2.12 1.352c.042.967-.12 1.435.657.88s2.047-2.287.475-3.079a40.6 40.6 0 0 1-.802-.406l-.172-.084c-.459-.224-.29-1.28.662-2.182 1.73-1.638 2.134-2.224 2.156-3.36-1.14.027-1.726.43-3.361 2.157z"/></g><path d="M375.586 153.458a28.538 28.538 0 1 0 40.359 0 28.537 28.537 0 0 0-40.359 0zm19.409 3.785c1.8-3.941 5.879-7.236 7.02-6.93s3.028 5.2 2.617 9.511a14.26 14.26 0 0 1-3.561 7.703 8.091 8.091 0 0 0-6.846-1.843 14.261 14.261 0 0 1 .77-8.441zm4.41 12.754a5.144 5.144 0 1 1-7.273.001 5.144 5.144 0 0 1 7.27.001zm-18.224-3.89c-2.512-3.529-3.326-8.708-2.49-9.545s6.017-.022 9.545 2.49a14.265 14.265 0 0 1 4.89 6.935 8.024 8.024 0 0 0-5.01 5.01 14.264 14.264 0 0 1-6.935-4.89zm-8.74 13.78c-.306-1.143 2.989-5.222 6.929-7.021a14.259 14.259 0 0 1 8.44-.768 8.089 8.089 0 0 0 1.843 6.846 14.262 14.262 0 0 1-7.701 3.56c-4.312.41-9.205-1.475-9.511-2.617zm24.095 10.145c-1.799 3.94-5.878 7.235-7.02 6.93s-3.028-5.2-2.617-9.511a14.263 14.263 0 0 1 3.562-7.704 8.088 8.088 0 0 0 6.843 1.845 14.259 14.259 0 0 1-.768 8.44zm13.814-8.864c2.513 3.528 3.326 8.708 2.49 9.544s-6.015.022-9.544-2.489a14.264 14.264 0 0 1-4.89-6.935 8.024 8.024 0 0 0 5.01-5.01 14.264 14.264 0 0 1 6.934 4.889zm8.74-13.78c.307 1.143-2.989 5.222-6.929 7.021a14.253 14.253 0 0 1-8.442.77 8.09 8.09 0 0 0-1.843-6.846 14.261 14.261 0 0 1 7.703-3.56c4.312-.413 9.205 1.472 9.51 2.614z"/><g transform="rotate(-45 544.37 37.002)"><path d="M40.007 17.068a11.469 11.469 0 0 0-11.469-11.47c-6.335 0-11.858 4.748-11.858 11.082-6.334 0-11.082 5.518-11.082 11.858a11.469 11.469 0 0 0 11.47 11.469 11.47 11.47 0 0 0 22.939 0 11.47 11.47 0 1 0 0-22.939zm8.234 10.908a1 1 0 0 1-1.059-.122 3.7 3.7 0 0 0-2.155-.779 6.214 6.214 0 0 1 1.971 1.309c.912.848 1.288 1.589 1.12 2.2a1.146 1.146 0 0 1-.908.789 1.267 1.267 0 0 1-1.21-.32 1.683 1.683 0 0 0-1.212-.714 3.008 3.008 0 0 1 1.435 2.483c0 1.233-.738 2.739-1.6 2.739a.762.762 0 0 1-.7-.519 2.836 2.836 0 0 1-.173-1.112 2.145 2.145 0 0 0-.614-1.587 3.215 3.215 0 0 1 .173 1.077c0 1.284-.708 2.852-1.534 2.852a.754.754 0 0 1-.705-.573 3.529 3.529 0 0 1-.166-1.226 1.565 1.565 0 0 0-.5-1.306c-.964-.777-3.293-.27-4.684.032a833.662 833.662 0 0 1-6.129 1.3.371.371 0 0 1-.175 0 6.075 6.075 0 0 1-.878.071 6.005 6.005 0 0 1-2.393-.5c.115.19.235.385.365.592a5.678 5.678 0 0 0 3.288 2.557 12.8 12.8 0 0 1 1.561.7 5.738 5.738 0 0 1 2.479 3.067 6.382 6.382 0 0 1-.3 4.949c-.949 2.031-2.336 2.788-3.319 2.821h-.062a1.151 1.151 0 0 1-1.054-.516 1 1 0 0 1 .122-1.059 3.684 3.684 0 0 0 .773-2.153 6.214 6.214 0 0 1-1.307 1.97c-.848.912-1.588 1.288-2.2 1.12a1.149 1.149 0 0 1-.789-.909 1.267 1.267 0 0 1 .319-1.21 1.685 1.685 0 0 0 .716-1.212 3.01 3.01 0 0 1-2.483 1.435c-1.233 0-2.739-.738-2.739-1.6a.762.762 0 0 1 .519-.7 2.834 2.834 0 0 1 1.112-.173 2.151 2.151 0 0 0 1.588-.614 3.224 3.224 0 0 1-1.077.173c-1.283 0-2.852-.707-2.852-1.533a.755.755 0 0 1 .573-.705 3.516 3.516 0 0 1 1.22-.162 1.567 1.567 0 0 0 1.307-.5c.777-.964.27-3.293-.033-4.684-.522-2.4-1.3-6.129-1.3-6.129a.385.385 0 0 1 0-.175 6.061 6.061 0 0 1-.071-.877 6 6 0 0 1 .5-2.394c-.19.116-.385.236-.592.366a5.674 5.674 0 0 0-2.553 3.283 12.791 12.791 0 0 1-.7 1.56 5.738 5.738 0 0 1-3.067 2.479 6.207 6.207 0 0 1-2.086.362 6.706 6.706 0 0 1-2.863-.663c-2.031-.949-2.788-2.336-2.821-3.319a1.176 1.176 0 0 1 .515-1.119 1 1 0 0 1 1.059.122 3.689 3.689 0 0 0 2.153.778 6.187 6.187 0 0 1-1.974-1.308c-.912-.848-1.288-1.588-1.12-2.2a1.145 1.145 0 0 1 .907-.788 1.265 1.265 0 0 1 1.211.318 1.682 1.682 0 0 0 1.212.715 3.008 3.008 0 0 1-1.435-2.483c0-1.233.738-2.739 1.6-2.739a.761.761 0 0 1 .7.519 2.818 2.818 0 0 1 .173 1.112 2.139 2.139 0 0 0 .61 1.579 3.216 3.216 0 0 1-.17-1.068c0-1.283.707-2.852 1.533-2.852.578 0 .871.605.871 1.8a1.567 1.567 0 0 0 .5 1.306c.964.777 3.293.271 4.684-.032 2.4-.522 6.129-1.3 6.129-1.3a.392.392 0 0 1 .176.005 5.865 5.865 0 0 1 3.271.427c-.116-.19-.236-.386-.366-.594a5.672 5.672 0 0 0-3.287-2.556 12.786 12.786 0 0 1-1.56-.7 5.742 5.742 0 0 1-2.48-3.067 6.386 6.386 0 0 1 .3-4.949c.949-2.031 2.336-2.788 3.319-2.821a1.165 1.165 0 0 1 1.116.515 1 1 0 0 1-.112 1.061 3.684 3.684 0 0 0-.779 2.153 6.2 6.2 0 0 1 1.308-1.974c.849-.911 1.59-1.286 2.2-1.119a1.145 1.145 0 0 1 .788.908 1.264 1.264 0 0 1-.319 1.21 1.68 1.68 0 0 0-.714 1.212 3.009 3.009 0 0 1 2.483-1.435c1.233 0 2.739.738 2.739 1.6a.761.761 0 0 1-.519.7 2.82 2.82 0 0 1-1.112.173 2.145 2.145 0 0 0-1.588.614 3.205 3.205 0 0 1 1.077-.173c1.283 0 2.852.707 2.852 1.533 0 .578-.6.871-1.8.871a1.567 1.567 0 0 0-1.306.5c-.777.964-.271 3.293.032 4.684a833.662 833.662 0 0 1 1.3 6.129.385.385 0 0 1-.005.177 6.064 6.064 0 0 1 .071.876 5.994 5.994 0 0 1-.5 2.394c.19-.115.386-.235.593-.366a5.676 5.676 0 0 0 2.556-3.286 12.816 12.816 0 0 1 .7-1.561 5.738 5.738 0 0 1 3.067-2.479 6.378 6.378 0 0 1 4.95.3c2.03.949 2.788 2.337 2.82 3.319a1.174 1.174 0 0 1-.507 1.118z"/><path d="M28.537 0a28.538 28.538 0 1 0 28.538 28.538A28.537 28.537 0 0 0 28.537 0zm14.125 42.662a14.372 14.372 0 0 1-28.25 0A14.4 14.4 0 0 1 2.693 28.538c0-7.019 4.671-13.263 11.332-14.513 1.25-6.662 7.494-11.332 14.513-11.332a14.4 14.4 0 0 1 14.124 11.72 14.372 14.372 0 0 1 0 28.25z"/><circle cx="3.982" cy="3.982" r="3.982" transform="rotate(-22.5 77.986 -45.465)"/></g><g transform="rotate(-45 512.957 -38.838)"><path d="M25.365 20.928a10.681 10.681 0 0 0-7.544-3.107 10.681 10.681 0 0 0 3.107 7.544 8.269 8.269 0 0 1 4.437-4.437zM20.928 31.709a10.681 10.681 0 0 0-3.107 7.544 10.681 10.681 0 0 0 7.544-3.107 8.267 8.267 0 0 1-4.437-4.437zM13.538 32.385c-2.198 0-6.433-2.198-6.433-3.846a10.718 10.718 0 0 0 8.007 10.365 13.362 13.362 0 0 1 2.883-7.953c-1.638.888-2.459 1.434-4.457 1.434zM13.538 24.69c2 0 2.82.542 4.456 1.434a13.362 13.362 0 0 1-2.882-7.953 10.719 10.719 0 0 0-8.007 10.366c0-1.649 4.235-3.847 6.433-3.847zM32.385 13.538c0 2-.542 2.82-1.434 4.456a13.36 13.36 0 0 1 7.953-2.883 10.72 10.72 0 0 0-10.367-8.006c1.649 0 3.848 4.234 3.848 6.433zM36.146 25.365a10.681 10.681 0 0 0 3.107-7.544 10.681 10.681 0 0 0-7.544 3.107 8.271 8.271 0 0 1 4.437 4.437z"/><path d="M24.69 13.538c0-2.2 2.2-6.433 3.847-6.433a10.719 10.719 0 0 0-10.366 8.007 13.362 13.362 0 0 1 7.953 2.883c-.891-1.638-1.434-2.458-1.434-4.457zM32.385 43.537c0 2.2-2.2 6.433-3.848 6.433a10.72 10.72 0 0 0 10.367-8.006 13.36 13.36 0 0 1-7.954-2.883c.892 1.637 1.435 2.458 1.435 4.456zM24.69 43.537c0-2 .542-2.82 1.434-4.456a13.362 13.362 0 0 1-7.953 2.883 10.719 10.719 0 0 0 10.366 8.007c-1.649-.001-3.847-4.235-3.847-6.434zM41.964 18.171a13.362 13.362 0 0 1-2.883 7.953c1.637-.892 2.457-1.434 4.456-1.434 2.2 0 6.433 2.2 6.433 3.847 0 1.648-4.234 3.847-6.433 3.847-2 0-2.82-.542-4.456-1.434a13.362 13.362 0 0 1 2.883 7.953 10.714 10.714 0 0 0 0-20.732z"/><path d="M28.537 0a28.538 28.538 0 1 0 28.538 28.538A28.537 28.537 0 0 0 28.537 0zm13.2 41.735a13.428 13.428 0 0 1-26.394 0 13.428 13.428 0 0 1 0-26.394 13.428 13.428 0 0 1 26.394 0 13.428 13.428 0 0 1 0 26.394z"/><circle cx="5.77" cy="5.77" r="5.77" transform="rotate(-67.5 34.189 .116)"/><path d="M31.709 36.146a10.681 10.681 0 0 0 7.544 3.107 10.681 10.681 0 0 0-3.107-7.544 8.269 8.269 0 0 1-4.437 4.437z"/></g><g><path d="M263.328 302.226a.421.421 0 0 1-.42.42l-1.647-.001a.42.42 0 0 1-.42-.42v-1.21a5.595 5.595 0 0 0-4.253 4.254h1.209a.419.419 0 0 1 .42.42v1.646a.419.419 0 0 1-.42.42h-1.208a5.6 5.6 0 0 0 4.252 4.252l.004-1.205a.42.42 0 0 1 .42-.42l1.642-.003a.42.42 0 0 1 .42.42v1.208a5.595 5.595 0 0 0 4.253-4.253l-1.209.001a.42.42 0 0 1-.42-.42l.005-1.643a.42.42 0 0 1 .42-.42h1.209a5.6 5.6 0 0 0-4.253-4.253zm.7 6.23a2.744 2.744 0 1 1-.003-3.884 2.743 2.743 0 0 1 0 3.88z"/><path d="M242.309 286.736a28.538 28.538 0 1 0 40.358 0 28.537 28.537 0 0 0-40.358 0zm37.244 2.668a48.4 48.4 0 0 0-1.116 4.902c-.241 1.475-1.728 2.265-3.046 2.68a4.178 4.178 0 0 1 2.2.851 1.881 1.881 0 0 1 .518 1.805 2.211 2.211 0 0 1-1.445 1.551 3.378 3.378 0 0 1-2.62-.151.985.985 0 0 1-.479-.73 1.1 1.1 0 0 1 .701-1.087c.041-.024.09-.051.136-.082a2.693 2.693 0 0 0-1.827.11 1.232 1.232 0 0 1-1.953 1.46l-.306-.305-1.363 1.363a8.308 8.308 0 0 1 1.373 3.494h3.518a1.578 1.578 0 0 1 .255-.17 1.591 1.591 0 0 1 1.994-1.995 1.592 1.592 0 0 1 2.821 0 1.591 1.591 0 0 1 1.995 1.994 1.587 1.587 0 0 1 .854 1.409 1.583 1.583 0 0 1-.854 1.408 1.591 1.591 0 0 1-1.995 1.995 1.591 1.591 0 0 1-2.82 0 1.591 1.591 0 0 1-1.995-1.995 1.583 1.583 0 0 1-.254-.17h-3.519a8.306 8.306 0 0 1-1.373 3.495l1.368 1.368.306-.306a1.232 1.232 0 0 1 1.953 1.46 2.689 2.689 0 0 0 1.833.108c-.044-.023-.098-.055-.141-.08a1.094 1.094 0 0 1-.7-1.087.988.988 0 0 1 .479-.73 3.377 3.377 0 0 1 2.62-.15 2.207 2.207 0 0 1 1.443 1.551 1.88 1.88 0 0 1-.517 1.805 4.176 4.176 0 0 1-2.202.852c1.319.414 2.805 1.205 3.047 2.68a48.673 48.673 0 0 0 1.113 4.903.29.29 0 0 1-.36.36 48.823 48.823 0 0 0-4.908-1.102c-1.475-.242-2.264-1.729-2.679-3.047a4.178 4.178 0 0 1-.853 2.202 1.88 1.88 0 0 1-1.804.518 2.21 2.21 0 0 1-1.552-1.445 3.381 3.381 0 0 1 .151-2.619.988.988 0 0 1 .73-.48 1.1 1.1 0 0 1 1.087.701c.024.041.05.09.081.137a2.694 2.694 0 0 0-.11-1.828 1.232 1.232 0 0 1-1.46-1.953l.307-.306-1.364-1.364a8.3 8.3 0 0 1-3.495 1.374l.004 3.517a1.585 1.585 0 0 1 .17.254 1.591 1.591 0 0 1 1.995 1.995 1.591 1.591 0 0 1 0 2.82 1.592 1.592 0 0 1-1.996 1.995 1.586 1.586 0 0 1-1.408.855 1.589 1.589 0 0 1-1.41-.854 1.591 1.591 0 0 1-1.994-1.995 1.591 1.591 0 0 1 0-2.82 1.591 1.591 0 0 1 1.994-1.994 1.588 1.588 0 0 1 .17-.255v-3.518a8.308 8.308 0 0 1-3.494-1.373l-1.367 1.368.305.305a1.232 1.232 0 0 1-1.46 1.953 2.687 2.687 0 0 0-.108 1.832l.08-.14a1.1 1.1 0 0 1 1.088-.702.987.987 0 0 1 .729.48 3.376 3.376 0 0 1 .151 2.62 2.21 2.21 0 0 1-1.55 1.444 1.881 1.881 0 0 1-1.805-.518 4.177 4.177 0 0 1-.853-2.2c-.413 1.319-1.203 2.804-2.678 3.046a48.577 48.577 0 0 0-4.905 1.113.291.291 0 0 1-.36-.36 48.689 48.689 0 0 0 1.113-4.905c.242-1.476 1.728-2.265 3.046-2.679a4.177 4.177 0 0 1-2.201-.853 1.88 1.88 0 0 1-.518-1.805 2.21 2.21 0 0 1 1.444-1.551 3.377 3.377 0 0 1 2.619.151.987.987 0 0 1 .48.73 1.1 1.1 0 0 1-.701 1.087c-.04.023-.09.05-.135.081a2.689 2.689 0 0 0 1.827-.11 1.232 1.232 0 0 1 1.953-1.46l.305.306 1.364-1.363a8.3 8.3 0 0 1-1.374-3.495l-3.525-.006a1.6 1.6 0 0 1-.255.17 1.591 1.591 0 0 1-1.995 1.995 1.591 1.591 0 0 1-2.82 0 1.591 1.591 0 0 1-1.994-1.995 1.587 1.587 0 0 1-.854-1.41 1.586 1.586 0 0 1 .854-1.408 1.592 1.592 0 0 1 1.995-1.996 1.591 1.591 0 0 1 2.82 0 1.591 1.591 0 0 1 1.995 1.995 1.6 1.6 0 0 1 .254.17h3.518a8.308 8.308 0 0 1 1.374-3.496l-1.366-1.365-.306.306a1.232 1.232 0 0 1-1.953-1.46 2.693 2.693 0 0 0-1.832-.108l.14.08a1.1 1.1 0 0 1 .701 1.087.992.992 0 0 1-.48.73 3.381 3.381 0 0 1-2.613.15 2.21 2.21 0 0 1-1.445-1.553 1.88 1.88 0 0 1 .518-1.804 4.178 4.178 0 0 1 2.202-.853c-1.32-.414-2.806-1.204-3.047-2.68a48.826 48.826 0 0 0-1.112-4.904.3.3 0 0 1 .36-.36 48.636 48.636 0 0 0 4.904 1.112c1.475.242 2.265 1.729 2.68 3.047a4.176 4.176 0 0 1 .852-2.202 1.88 1.88 0 0 1 1.804-.517 2.208 2.208 0 0 1 1.552 1.444 3.378 3.378 0 0 1-.15 2.62.994.994 0 0 1-.73.479 1.1 1.1 0 0 1-1.094-.7c-.024-.041-.051-.09-.082-.136a2.694 2.694 0 0 0 .11 1.827 1.232 1.232 0 0 1 1.46 1.953l-.306.307 1.363 1.363a8.3 8.3 0 0 1 3.495-1.374v-3.517a1.6 1.6 0 0 1-.17-.255 1.591 1.591 0 0 1-1.993-1.994 1.591 1.591 0 0 1-.001-2.82 1.592 1.592 0 0 1 1.995-1.995 1.587 1.587 0 0 1 1.409-.854 1.589 1.589 0 0 1 1.41.854 1.591 1.591 0 0 1 1.994 1.994 1.591 1.591 0 0 1 0 2.82 1.591 1.591 0 0 1-1.995 1.995 1.582 1.582 0 0 1-.17.255v3.517a8.3 8.3 0 0 1 3.495 1.373l1.363-1.363-.305-.306a1.232 1.232 0 0 1 1.46-1.953 2.7 2.7 0 0 0 .107-1.832l-.072.14a1.1 1.1 0 0 1-1.087.702.985.985 0 0 1-.73-.48 3.379 3.379 0 0 1-.151-2.619 2.208 2.208 0 0 1 1.552-1.445 1.88 1.88 0 0 1 1.804.518 4.178 4.178 0 0 1 .853 2.202c.414-1.319 1.205-2.804 2.68-3.047a48.6 48.6 0 0 0 4.904-1.111.29.29 0 0 1 .36.36z"/></g><path d="M375.587 242.31a28.538 28.538 0 1 0 40.357 0 28.57 28.57 0 0 0-40.357 0zm35.955 35.955a6.351 6.351 0 1 1 0-8.981 6.358 6.358 0 0 1 0 8.98zm-24.015-13.974h6.437v6.438a9.921 9.921 0 0 0-6.435-6.435zm-7.538-17.579a6.35 6.35 0 1 1 0 8.982 6.357 6.357 0 0 1 .001-8.981zm11.534 11.534a9.894 9.894 0 0 0 2.437-4v6.438h-6.438a9.9 9.9 0 0 0 4.002-2.438zm8.485 8.485a9.9 9.9 0 0 0-2.437 4v-6.437h6.437a9.893 9.893 0 0 0-4 2.436zm-2.438-6.047v-6.437a9.924 9.924 0 0 0 6.434 6.435zm2.439-16.526a9.9 9.9 0 0 0-2.437 4v-10.515a24.857 24.857 0 0 1 11.597 3.83 9.96 9.96 0 0 0-9.16 2.685zm11.534 2.553a6.35 6.35 0 1 1-8.981 0 6.357 6.357 0 0 1 8.98.002zm-17.582 1.45a9.942 9.942 0 0 0-11.6-6.687 24.859 24.859 0 0 1 11.6-3.828zm-16.524 10.085a9.9 9.9 0 0 0 4 2.438h-10.515a24.87 24.87 0 0 1 3.828-11.598 9.96 9.96 0 0 0 2.687 9.16zm3.995 6.045a9.94 9.94 0 0 0-6.682 11.601 24.863 24.863 0 0 1-3.828-11.598zm7.535 4.99a6.351 6.351 0 1 1-8.981 0 6.358 6.358 0 0 1 8.984.003zm2.557 11.538a9.9 9.9 0 0 0 2.438-4l-.002 10.513a24.867 24.867 0 0 1-11.598-3.828 9.958 9.958 0 0 0 9.162-2.685zm6.045-3.996a9.943 9.943 0 0 0 11.597 6.684 24.867 24.867 0 0 1-11.597 3.83zm16.528-10.091a9.9 9.9 0 0 0-4-2.438h10.515a24.867 24.867 0 0 1-3.83 11.597 9.959 9.959 0 0 0-2.685-9.16zm-3.997-6.044a9.941 9.941 0 0 0 6.684-11.597 24.863 24.863 0 0 1 3.831 11.598z"/><g><path d="M443.01 220.93a4.02 4.02 0 1 0-5.685-.001 4.02 4.02 0 0 0 5.686 0zM432.083 205.814a41.72 41.72 0 0 1-.406.802l-.084.172c-.224.459-1.28.29-2.182-.662-1.638-1.729-2.226-2.132-3.36-2.155.022 1.135.426 1.722 2.156 3.36.949.899 1.124 1.954.662 2.182l-.171.083s-.085.046-.802.407c-1.574.792-.31 2.517.47 3.075s.617.09.656-.88a1.462 1.462 0 0 1 2.127-1.35 25.524 25.524 0 0 1 3.808 3.346 6.506 6.506 0 0 1 .606-.711 6.5 6.5 0 0 1 .71-.605 25.568 25.568 0 0 1-3.343-3.812 1.463 1.463 0 0 1 1.35-2.127c.968-.042 1.436.12.88-.658s-2.285-2.039-3.077-.467zM451.313 223.976a1.463 1.463 0 0 1-2.124 1.348 25.556 25.556 0 0 1-3.81-3.34 6.511 6.511 0 0 1-.605.71 6.514 6.514 0 0 1-.712.605 25.512 25.512 0 0 1 3.345 3.807 1.462 1.462 0 0 1-1.35 2.127c-.967.04-1.44-.125-.88.656s2.283 2.043 3.075.47c.361-.717.406-.803.407-.802l.083-.171c.225-.46 1.28-.29 2.182.662 1.638 1.729 2.225 2.134 3.36 2.156-.023-1.135-.426-1.721-2.156-3.36-.95-.899-1.122-1.959-.663-2.181l.172-.084s.084-.045.802-.407c1.573-.792.31-2.518-.47-3.075s-.615-.088-.656.88zM434.957 221.983a25.493 25.493 0 0 1-3.808 3.344 1.462 1.462 0 0 1-2.125-1.35c-.042-.967.12-1.435-.658-.88s-2.041 2.283-.47 3.074c.72.362.804.406.803.407.015.006.057.027.172.084.459.224.29 1.28-.662 2.182-1.73 1.637-2.134 2.225-2.157 3.359 1.135-.022 1.722-.426 3.36-2.156.898-.949 1.958-1.12 2.182-.662l.083.171c.007.014.046.084.407.803.792 1.572 2.518.31 3.074-.47s.09-.618-.88-.657a1.462 1.462 0 0 1-1.347-2.123 25.51 25.51 0 0 1 3.345-3.807 6.522 6.522 0 0 1-.712-.605 6.521 6.521 0 0 1-.607-.714z"/><path d="M420.012 197.884a28.538 28.538 0 1 0 40.358 0 28.537 28.537 0 0 0-40.358 0zm38.66 16.195c-.084 1.088-1.933 3.17-5.537 1.817-1.799-.676-2.456-1.261-3.583.253a5.9 5.9 0 0 0-.92 1.91 5.907 5.907 0 0 0 .92 1.909c1.127 1.514 1.782.933 3.583.254 3.605-1.353 5.455.73 5.538 1.817.59 7.66-.631 12.315-1.406 13.09s-5.426 1.993-13.09 1.406c-1.088-.084-3.17-1.934-1.817-5.538l-.254-3.583a5.889 5.889 0 0 0-1.91-.92 5.906 5.906 0 0 0-1.909.92c-1.515 1.128-.933 1.782-.253 3.584 1.352 3.604-.73 5.455-1.817 5.537-7.66.59-12.316-.631-13.09-1.405s-1.993-5.428-1.406-13.09c.084-1.088 1.934-3.17 5.538-1.817 1.799.676 2.455 1.26 3.583-.254a5.882 5.882 0 0 0 .92-1.91 5.9 5.9 0 0 0-.92-1.909c-1.127-1.516-1.782-.933-3.583-.254-3.604 1.352-5.455-.73-5.538-1.817-.59-7.66.631-12.316 1.405-13.09s5.428-1.993 13.091-1.406c1.087.083 3.17 1.934 1.817 5.538-.675 1.799-1.261 2.456.254 3.583a5.892 5.892 0 0 0 1.91.92 5.9 5.9 0 0 0 1.908-.92c1.515-1.127.933-1.78.254-3.583-1.352-3.604.73-5.455 1.817-5.537 7.66-.59 12.315.63 13.09 1.406s1.992 5.425 1.405 13.09z"/><path d="M450.924 206.128c-.899.95-1.958 1.12-2.182.661l-.084-.171s-.045-.084-.407-.803c-.79-1.572-2.516-.309-3.074.471s-.09.618.88.657a1.462 1.462 0 0 1 1.35 2.125 25.493 25.493 0 0 1-3.343 3.808 6.514 6.514 0 0 1 .71.606 6.522 6.522 0 0 1 .606.71 25.51 25.51 0 0 1 3.81-3.342 1.462 1.462 0 0 1 2.12 1.352c.041.967-.121 1.435.656.88s2.047-2.287.475-3.079a35.15 35.15 0 0 1-.803-.406l-.17-.084c-.46-.224-.291-1.28.661-2.182 1.729-1.638 2.134-2.224 2.156-3.36-1.14.027-1.726.43-3.36 2.157z"/></g><path d="M197.884 420.013a28.538 28.538 0 1 0 40.357 0 28.537 28.537 0 0 0-40.357 0zm19.408 3.784c1.8-3.94 5.879-7.234 7.021-6.929s3.028 5.199 2.617 9.51a14.263 14.263 0 0 1-3.562 7.705 8.088 8.088 0 0 0-6.846-1.844 14.259 14.259 0 0 1 .77-8.442zm4.411 12.755a5.144 5.144 0 1 1-7.273 0 5.144 5.144 0 0 1 7.27.003zm-18.225-3.89c-2.513-3.528-3.326-8.707-2.49-9.545s6.016-.021 9.545 2.49a14.264 14.264 0 0 1 4.89 6.936 8.025 8.025 0 0 0-5.01 5.01 14.265 14.265 0 0 1-6.935-4.891zm-8.74 13.78c-.306-1.143 2.985-5.218 6.929-7.02a14.251 14.251 0 0 1 8.44-.769 8.09 8.09 0 0 0 1.843 6.846 14.261 14.261 0 0 1-7.701 3.56c-4.312.41-9.205-1.475-9.51-2.618zm24.095 10.146c-1.8 3.939-5.878 7.234-7.02 6.928s-3.028-5.199-2.616-9.51a14.26 14.26 0 0 1 3.56-7.704 8.091 8.091 0 0 0 6.844 1.846 14.261 14.261 0 0 1-.768 8.44zm13.815-8.865c2.512 3.528 3.326 8.708 2.49 9.544s-6.016.022-9.545-2.49a14.261 14.261 0 0 1-4.89-6.934 8.024 8.024 0 0 0 5.01-5.01 14.265 14.265 0 0 1 6.934 4.889zm8.74-13.781c.305 1.143-2.99 5.222-6.93 7.02a14.265 14.265 0 0 1-8.442.77 8.089 8.089 0 0 0-1.843-6.845 14.262 14.262 0 0 1 7.704-3.561c4.31-.411 9.204 1.474 9.51 2.616z"/><g transform="rotate(-45 588.797 -70.252)"><path d="M40.007 17.068a11.469 11.469 0 0 0-11.47-11.47c-6.339 0-11.857 4.747-11.857 11.082-6.334 0-11.082 5.523-11.082 11.857a11.47 11.47 0 0 0 11.47 11.47 11.47 11.47 0 1 0 22.939 0 11.47 11.47 0 1 0 0-22.939zm8.234 10.908a1 1 0 0 1-1.059-.122 3.691 3.691 0 0 0-2.154-.779 6.2 6.2 0 0 1 1.97 1.309c.912.848 1.288 1.588 1.12 2.2a1.147 1.147 0 0 1-.908.789 1.269 1.269 0 0 1-1.211-.32 1.68 1.68 0 0 0-1.211-.715 3.01 3.01 0 0 1 1.435 2.483c0 1.233-.738 2.739-1.6 2.739a.761.761 0 0 1-.7-.518 2.837 2.837 0 0 1-.173-1.112 2.151 2.151 0 0 0-.614-1.588 3.224 3.224 0 0 1 .173 1.077c0 1.283-.707 2.852-1.533 2.852a.755.755 0 0 1-.705-.573 3.515 3.515 0 0 1-.166-1.226 1.567 1.567 0 0 0-.5-1.307c-.964-.777-3.293-.27-4.684.033a833.662 833.662 0 0 1-6.129 1.3.376.376 0 0 1-.175 0 6.087 6.087 0 0 1-.878.071 6 6 0 0 1-2.393-.5c.115.19.235.385.365.592a5.673 5.673 0 0 0 3.287 2.557 12.821 12.821 0 0 1 1.561.7 5.738 5.738 0 0 1 2.479 3.067 6.383 6.383 0 0 1-.3 4.949c-.949 2.031-2.336 2.788-3.319 2.821h-.062a1.151 1.151 0 0 1-1.054-.516 1 1 0 0 1 .122-1.06 3.682 3.682 0 0 0 .778-2.153 6.189 6.189 0 0 1-1.312 1.972c-.848.912-1.588 1.289-2.2 1.12a1.147 1.147 0 0 1-.789-.908 1.265 1.265 0 0 1 .319-1.21 1.682 1.682 0 0 0 .715-1.212 3.009 3.009 0 0 1-2.483 1.435c-1.233 0-2.739-.738-2.739-1.6a.762.762 0 0 1 .518-.7 2.828 2.828 0 0 1 1.112-.173 2.145 2.145 0 0 0 1.587-.614 3.2 3.2 0 0 1-1.077.173c-1.283 0-2.852-.707-2.852-1.533a.755.755 0 0 1 .573-.705 3.513 3.513 0 0 1 1.223-.163 1.567 1.567 0 0 0 1.306-.5c.777-.964.271-3.293-.033-4.684-.521-2.4-1.3-6.129-1.3-6.129a.385.385 0 0 1 0-.175 6.073 6.073 0 0 1-.071-.877 6 6 0 0 1 .5-2.394c-.19.115-.385.235-.592.366a5.672 5.672 0 0 0-2.552 3.283 12.8 12.8 0 0 1-.7 1.56 5.738 5.738 0 0 1-3.067 2.479 6.208 6.208 0 0 1-2.086.362 6.716 6.716 0 0 1-2.863-.663c-2.031-.949-2.788-2.337-2.821-3.319a1.173 1.173 0 0 1 .515-1.119 1 1 0 0 1 1.06.121 3.686 3.686 0 0 0 2.153.779 6.2 6.2 0 0 1-1.974-1.308c-.911-.848-1.288-1.588-1.119-2.2a1.144 1.144 0 0 1 .907-.788 1.263 1.263 0 0 1 1.211.318 1.681 1.681 0 0 0 1.212.715 3.008 3.008 0 0 1-1.436-2.482c0-1.233.738-2.739 1.6-2.739a.762.762 0 0 1 .7.518 2.827 2.827 0 0 1 .173 1.112 2.142 2.142 0 0 0 .611 1.579 3.216 3.216 0 0 1-.17-1.068c0-1.283.707-2.852 1.533-2.852.578 0 .871.6.871 1.8a1.567 1.567 0 0 0 .5 1.306c.964.777 3.293.27 4.684-.032 2.4-.523 6.129-1.3 6.129-1.3a.4.4 0 0 1 .176.006 5.871 5.871 0 0 1 3.271.426c-.116-.19-.236-.386-.366-.594a5.673 5.673 0 0 0-3.287-2.555 12.714 12.714 0 0 1-1.56-.7 5.738 5.738 0 0 1-2.48-3.066 6.383 6.383 0 0 1 .3-4.949c.949-2.031 2.336-2.789 3.318-2.821a1.164 1.164 0 0 1 1.116.515 1 1 0 0 1-.121 1.059 3.682 3.682 0 0 0-.779 2.154 6.2 6.2 0 0 1 1.308-1.974c.849-.911 1.59-1.286 2.2-1.12a1.147 1.147 0 0 1 .788.908 1.264 1.264 0 0 1-.319 1.211 1.68 1.68 0 0 0-.714 1.212 3.01 3.01 0 0 1 2.492-1.441c1.233 0 2.739.738 2.739 1.6a.762.762 0 0 1-.519.7 2.822 2.822 0 0 1-1.112.173 2.147 2.147 0 0 0-1.588.614 3.22 3.22 0 0 1 1.077-.173c1.283 0 2.852.708 2.852 1.534 0 .578-.6.871-1.8.871a1.565 1.565 0 0 0-1.306.5c-.777.964-.27 3.293.032 4.684a833.662 833.662 0 0 1 1.3 6.129.394.394 0 0 1-.005.177 6.065 6.065 0 0 1 .071.877 6 6 0 0 1-.5 2.394c.19-.115.386-.235.593-.366a5.678 5.678 0 0 0 2.556-3.286 12.759 12.759 0 0 1 .7-1.561 5.742 5.742 0 0 1 3.067-2.48 6.382 6.382 0 0 1 4.95.3c2.029.949 2.787 2.336 2.82 3.318a1.174 1.174 0 0 1-.508 1.123z"/><path d="M28.537 0a28.538 28.538 0 1 0 28.538 28.537A28.537 28.537 0 0 0 28.537 0zm14.125 42.662a14.372 14.372 0 0 1-28.25 0A14.4 14.4 0 0 1 2.693 28.537c0-7.019 4.671-13.262 11.332-14.512 1.25-6.662 7.493-11.332 14.512-11.332a14.4 14.4 0 0 1 14.125 11.72 14.372 14.372 0 0 1 0 28.25z"/><circle cx="3.982" cy="3.982" r="3.982" transform="rotate(-22.48 77.907 -45.467)"/></g><g transform="rotate(-45 557.383 -146.091)"><path d="M25.365 20.928a10.681 10.681 0 0 0-7.544-3.107 10.681 10.681 0 0 0 3.107 7.544 8.267 8.267 0 0 1 4.437-4.437zM20.928 31.709a10.681 10.681 0 0 0-3.107 7.544 10.681 10.681 0 0 0 7.544-3.107 8.27 8.27 0 0 1-4.437-4.437zM13.538 32.385c-2.199 0-6.433-2.198-6.433-3.847a10.719 10.719 0 0 0 8.007 10.366 13.357 13.357 0 0 1 2.883-7.953c-1.638.887-2.459 1.434-4.457 1.434zM13.538 24.69c2 0 2.819.542 4.456 1.434a13.358 13.358 0 0 1-2.882-7.953 10.718 10.718 0 0 0-8.007 10.365c0-1.648 4.234-3.846 6.433-3.846zM32.384 13.538c0 2-.542 2.82-1.433 4.456a13.358 13.358 0 0 1 7.953-2.883 10.72 10.72 0 0 0-10.367-8.006c1.649 0 3.847 4.234 3.847 6.433zM36.146 25.365a10.681 10.681 0 0 0 3.107-7.544 10.68 10.68 0 0 0-7.544 3.107 8.269 8.269 0 0 1 4.437 4.437zM24.69 13.538c0-2.2 2.2-6.433 3.847-6.433a10.719 10.719 0 0 0-10.366 8.007 13.362 13.362 0 0 1 7.953 2.883c-.891-1.638-1.434-2.459-1.434-4.457zM32.384 43.537c0 2.2-2.2 6.433-3.847 6.433a10.72 10.72 0 0 0 10.367-8.006 13.358 13.358 0 0 1-7.954-2.883c.892 1.637 1.434 2.457 1.434 4.456zM24.69 43.537c0-2 .542-2.82 1.434-4.456a13.362 13.362 0 0 1-7.953 2.883 10.719 10.719 0 0 0 10.366 8.007c-1.648-.001-3.847-4.235-3.847-6.434zM41.964 18.171a13.362 13.362 0 0 1-2.883 7.953c1.637-.892 2.457-1.434 4.456-1.434 2.2 0 6.433 2.2 6.433 3.847 0 1.649-4.235 3.847-6.433 3.847-2 0-2.82-.542-4.456-1.434a13.362 13.362 0 0 1 2.883 7.953 10.714 10.714 0 0 0 0-20.732z"/><path d="M28.537 0a28.538 28.538 0 1 0 28.537 28.537A28.537 28.537 0 0 0 28.537 0zm13.2 41.734a13.428 13.428 0 0 1-26.394 0 13.428 13.428 0 0 1 0-26.394 13.428 13.428 0 0 1 26.394 0 13.428 13.428 0 0 1 0 26.394z"/><circle cx="5.77" cy="5.77" r="5.77" transform="rotate(-67.5 34.189 .116)"/><path d="M31.709 36.146a10.679 10.679 0 0 0 7.544 3.107 10.681 10.681 0 0 0-3.107-7.544 8.272 8.272 0 0 1-4.437 4.437z"/></g><g><path d="M352.18 302.224a.419.419 0 0 1-.42.42h-1.646a.423.423 0 0 1-.3-.125.417.417 0 0 1-.124-.3l.005-1.205a5.595 5.595 0 0 0-4.254 4.254h1.209a.42.42 0 0 1 .42.42v1.646a.419.419 0 0 1-.42.42h-1.209a5.6 5.6 0 0 0 4.253 4.252l.004-1.204a.419.419 0 0 1 .42-.42l1.642-.003a.42.42 0 0 1 .42.42v1.209a5.6 5.6 0 0 0 4.253-4.253h-1.209a.419.419 0 0 1-.42-.42l.005-1.644a.42.42 0 0 1 .42-.42h1.209a5.6 5.6 0 0 0-4.253-4.252zm.7 6.23a2.744 2.744 0 1 1-.003-3.884 2.744 2.744 0 0 1 0 3.88z"/><path d="M331.161 286.735a28.538 28.538 0 1 0 40.358 0 28.538 28.538 0 0 0-40.358 0zm37.244 2.669a48.3 48.3 0 0 0-1.115 4.901c-.242 1.476-1.728 2.266-3.047 2.68a4.184 4.184 0 0 1 2.202.852 1.88 1.88 0 0 1 .517 1.804 2.209 2.209 0 0 1-1.444 1.552 3.375 3.375 0 0 1-2.62-.151.987.987 0 0 1-.479-.73 1.1 1.1 0 0 1 .702-1.086c.04-.023.09-.052.135-.082a2.694 2.694 0 0 0-1.827.11 1.232 1.232 0 0 1-1.953 1.46l-.305-.306-1.364 1.364a8.3 8.3 0 0 1 1.373 3.495h3.518a1.589 1.589 0 0 1 .255-.17 1.591 1.591 0 0 1 1.995-1.995 1.591 1.591 0 0 1 2.82 0 1.591 1.591 0 0 1 1.995 1.994 1.589 1.589 0 0 1 .854 1.409 1.586 1.586 0 0 1-.854 1.409 1.591 1.591 0 0 1-1.994 1.994 1.591 1.591 0 0 1-2.82 0 1.591 1.591 0 0 1-1.995-1.995 1.536 1.536 0 0 1-.254-.17l-3.516.011a8.3 8.3 0 0 1-1.373 3.495l1.359 1.359.305-.305a1.232 1.232 0 0 1 1.953 1.459 2.693 2.693 0 0 0 1.833.108 3.979 3.979 0 0 1-.14-.08 1.093 1.093 0 0 1-.701-1.087.985.985 0 0 1 .48-.73 3.375 3.375 0 0 1 2.618-.151 2.208 2.208 0 0 1 1.445 1.552 1.882 1.882 0 0 1-.518 1.804 4.182 4.182 0 0 1-2.2.852c1.317.415 2.803 1.205 3.046 2.68a48.473 48.473 0 0 0 1.112 4.903.29.29 0 0 1-.36.36 48.7 48.7 0 0 0-4.903-1.105c-1.476-.242-2.265-1.729-2.68-3.047a4.178 4.178 0 0 1-.852 2.202 1.881 1.881 0 0 1-1.805.518 2.208 2.208 0 0 1-1.552-1.445 3.374 3.374 0 0 1 .151-2.619.986.986 0 0 1 .73-.48 1.1 1.1 0 0 1 1.087.701c.024.041.05.09.081.137a2.7 2.7 0 0 0-.11-1.828 1.232 1.232 0 0 1-1.458-1.96l.305-.306-1.36-1.362a8.305 8.305 0 0 1-3.495 1.374v3.521a1.633 1.633 0 0 1 .17.255 1.592 1.592 0 0 1 1.994 1.994 1.591 1.591 0 0 1 0 2.82 1.592 1.592 0 0 1-1.995 1.996 1.587 1.587 0 0 1-1.409.854 1.59 1.59 0 0 1-1.409-.854 1.591 1.591 0 0 1-1.994-1.995 1.59 1.59 0 0 1 0-2.82 1.591 1.591 0 0 1 1.994-1.995 1.588 1.588 0 0 1 .17-.254v-3.519a8.3 8.3 0 0 1-3.494-1.373l-1.369 1.368.306.306a1.232 1.232 0 0 1-1.46 1.953 2.684 2.684 0 0 0-.108 1.832l.08-.14a1.1 1.1 0 0 1 1.086-.702.987.987 0 0 1 .73.48 3.375 3.375 0 0 1 .15 2.619 2.208 2.208 0 0 1-1.55 1.444 1.879 1.879 0 0 1-1.805-.518 4.177 4.177 0 0 1-.853-2.2c-.414 1.319-1.204 2.804-2.68 3.047a48.327 48.327 0 0 0-4.903 1.112.291.291 0 0 1-.36-.36 48.328 48.328 0 0 0 1.112-4.904c.242-1.476 1.728-2.265 3.046-2.68a4.175 4.175 0 0 1-2.2-.852 1.88 1.88 0 0 1-.518-1.805 2.207 2.207 0 0 1 1.444-1.551 3.375 3.375 0 0 1 2.62.15.986.986 0 0 1 .479.73 1.1 1.1 0 0 1-.7 1.087c-.041.024-.091.051-.137.082a2.694 2.694 0 0 0 1.827-.11 1.232 1.232 0 0 1 1.953-1.46l.305.306 1.364-1.365a8.294 8.294 0 0 1-1.374-3.495l-3.521-.003a1.653 1.653 0 0 1-.255.17 1.592 1.592 0 0 1-1.994 1.995 1.591 1.591 0 0 1-2.821 0 1.591 1.591 0 0 1-1.995-1.996 1.587 1.587 0 0 1-.854-1.408 1.586 1.586 0 0 1 .854-1.41 1.592 1.592 0 0 1 1.995-1.995 1.591 1.591 0 0 1 2.82 0 1.592 1.592 0 0 1 1.995 1.995 1.646 1.646 0 0 1 .254.17h3.517a8.3 8.3 0 0 1 1.374-3.496l-1.364-1.364-.3.299a1.232 1.232 0 0 1-1.953-1.46 2.69 2.69 0 0 0-1.832-.108c.043.023.098.055.14.08a1.1 1.1 0 0 1 .702 1.087.992.992 0 0 1-.48.73 3.378 3.378 0 0 1-2.62.154 2.207 2.207 0 0 1-1.443-1.551 1.88 1.88 0 0 1 .517-1.804 4.178 4.178 0 0 1 2.202-.853c-1.32-.415-2.805-1.204-3.047-2.68a48.575 48.575 0 0 0-1.112-4.905.3.3 0 0 1 .36-.36 48.3 48.3 0 0 0 4.904 1.113c1.476.242 2.265 1.729 2.68 3.047a4.176 4.176 0 0 1 .852-2.2 1.881 1.881 0 0 1 1.804-.519 2.207 2.207 0 0 1 1.552 1.444 3.379 3.379 0 0 1-.151 2.62.994.994 0 0 1-.73.48 1.094 1.094 0 0 1-1.087-.703c-.023-.04-.051-.09-.08-.135a2.693 2.693 0 0 0 .109 1.828 1.232 1.232 0 0 1 1.46 1.953l-.306.306 1.362 1.362a8.291 8.291 0 0 1 3.495-1.373v-3.518a1.537 1.537 0 0 1-.17-.255 1.591 1.591 0 0 1-1.995-1.995 1.591 1.591 0 0 1 0-2.82 1.591 1.591 0 0 1 1.995-1.994 1.587 1.587 0 0 1 1.41-.854 1.588 1.588 0 0 1 1.409.854 1.591 1.591 0 0 1 1.994 1.994 1.591 1.591 0 0 1 0 2.822 1.591 1.591 0 0 1-1.994 1.994 1.649 1.649 0 0 1-.17.254v3.518a8.3 8.3 0 0 1 3.494 1.373l1.364-1.363-.306-.305a1.232 1.232 0 0 1 1.46-1.953 2.691 2.691 0 0 0 .109-1.832l-.08.14a1.1 1.1 0 0 1-1.087.702.986.986 0 0 1-.73-.48 3.375 3.375 0 0 1-.151-2.619 2.208 2.208 0 0 1 1.552-1.445 1.881 1.881 0 0 1 1.805.518 4.182 4.182 0 0 1 .852 2.201c.414-1.318 1.204-2.804 2.679-3.047a48.3 48.3 0 0 0 4.904-1.112.291.291 0 0 1 .36.36z"/></g><path d="M464.438 242.31a28.537 28.537 0 1 0 40.358 0 28.569 28.569 0 0 0-40.358 0zm35.955 35.955a6.35 6.35 0 1 1 .002-8.98 6.358 6.358 0 0 1-.002 8.98zm-24.014-13.973h6.437v6.437a9.926 9.926 0 0 0-6.435-6.435zm-7.538-17.579a6.35 6.35 0 1 1 0 8.982 6.358 6.358 0 0 1 0-8.982zm11.534 11.534a9.9 9.9 0 0 0 2.438-4v6.437h-6.44a9.894 9.894 0 0 0 4.002-2.437zm8.485 8.485a9.9 9.9 0 0 0-2.437 4v-6.436h6.437a9.9 9.9 0 0 0-4 2.436zm-2.437-6.048v-6.436a9.926 9.926 0 0 0 6.435 6.435zm2.438-16.526a9.9 9.9 0 0 0-2.437 4v-10.515a24.861 24.861 0 0 1 11.597 3.83 9.96 9.96 0 0 0-9.16 2.685zm11.534 2.553a6.35 6.35 0 1 1-8.981 0 6.357 6.357 0 0 1 8.98.002zm-17.582 1.45a9.94 9.94 0 0 0-11.6-6.687 24.857 24.857 0 0 1 11.6-3.828zm-16.525 10.086a9.9 9.9 0 0 0 4 2.437h-10.514a24.858 24.858 0 0 1 3.829-11.598 9.959 9.959 0 0 0 2.685 9.161zm3.997 6.044a9.94 9.94 0 0 0-6.683 11.6 24.862 24.862 0 0 1-3.828-11.597zm7.535 4.99a6.35 6.35 0 1 1-8.982 0 6.358 6.358 0 0 1 8.984.003zm2.557 11.538a9.9 9.9 0 0 0 2.437-4l-.001 10.513a24.867 24.867 0 0 1-11.598-3.828 9.96 9.96 0 0 0 9.162-2.685zm6.044-3.996a9.94 9.94 0 0 0 11.596 6.684 24.856 24.856 0 0 1-11.595 3.825zm16.528-10.091a9.893 9.893 0 0 0-3.999-2.437h10.515a24.857 24.857 0 0 1-3.83 11.596 9.959 9.959 0 0 0-2.686-9.16zm-3.997-6.044a9.941 9.941 0 0 0 6.685-11.597 24.855 24.855 0 0 1 3.824 11.593z"/><g><path d="M265.307 487.485a4.02 4.02 0 1 0-5.684 0 4.02 4.02 0 0 0 5.684 0zM254.38 472.37a38.84 38.84 0 0 1-.407.801l-.083.172c-.225.458-1.281.29-2.183-.662-1.637-1.728-2.224-2.133-3.36-2.155.023 1.135.427 1.722 2.157 3.36.95.898 1.124 1.954.662 2.182l-.172.084s-.084.046-.802.407c-1.573.79-.31 2.516.47 3.074s.618.09.657-.88a1.462 1.462 0 0 1 2.126-1.35 25.477 25.477 0 0 1 3.808 3.344 6.532 6.532 0 0 1 .606-.71 6.531 6.531 0 0 1 .71-.606 25.474 25.474 0 0 1-3.342-3.81 1.462 1.462 0 0 1 1.35-2.127c.968-.042 1.436.12.88-.656s-2.285-2.04-3.077-.468zM273.606 490.527a1.462 1.462 0 0 1-2.12 1.352 25.512 25.512 0 0 1-3.81-3.341 6.514 6.514 0 0 1-.605.711 6.5 6.5 0 0 1-.71.605 25.5 25.5 0 0 1 3.343 3.807 1.462 1.462 0 0 1-1.354 2.122c-.963.046-1.436-.12-.876.661s2.283 2.043 3.075.47c.361-.718.406-.803.407-.802l.084-.172c.224-.459 1.28-.29 2.182.662 1.639 1.73 2.224 2.134 3.36 2.156-.023-1.135-.426-1.721-2.157-3.36-.95-.898-1.12-1.957-.662-2.181l.172-.084s.084-.046.802-.406c1.573-.792.31-2.519-.47-3.076s-.616-.087-.661.876zM257.254 488.537a25.509 25.509 0 0 1-3.807 3.345 1.462 1.462 0 0 1-2.126-1.352c-.041-.966.12-1.434-.657-.88s-2.042 2.284-.47 3.076c.718.361.803.406.802.407l.172.084c.459.224.29 1.28-.662 2.182-1.73 1.637-2.134 2.224-2.156 3.358 1.135-.022 1.722-.426 3.36-2.156.898-.95 1.957-1.12 2.182-.661l.083.17s.046.085.407.803c.792 1.573 2.518.31 3.076-.47s.09-.618-.88-.657a1.462 1.462 0 0 1-1.35-2.123 25.458 25.458 0 0 1 3.345-3.807 6.526 6.526 0 0 1-.71-.606 6.519 6.519 0 0 1-.61-.713z"/><path d="M242.31 464.439a28.537 28.537 0 1 0 40.357 0 28.538 28.538 0 0 0-40.357 0zm38.659 16.195c-.084 1.088-1.934 3.17-5.537 1.817-1.799-.675-2.456-1.26-3.584.254a5.889 5.889 0 0 0-.92 1.91 5.905 5.905 0 0 0 .92 1.909c1.126 1.515 1.781.932 3.583.254 3.604-1.353 5.455.73 5.537 1.816.59 7.661-.631 12.316-1.406 13.09s-5.427 1.993-13.09 1.406c-1.087-.084-3.17-1.934-1.816-5.537l-.253-3.584a5.914 5.914 0 0 0-1.91-.92 5.889 5.889 0 0 0-1.909.92c-1.514 1.127-.933 1.782-.253 3.583 1.353 3.605-.73 5.455-1.817 5.537-7.66.59-12.315-.63-13.09-1.406s-1.993-5.426-1.406-13.09c.084-1.087 1.934-3.17 5.538-1.816 1.798.675 2.455 1.26 3.583-.254a5.892 5.892 0 0 0 .919-1.91 5.9 5.9 0 0 0-.92-1.908c-1.127-1.515-1.78-.933-3.583-.253-3.604 1.352-5.455-.73-5.537-1.817-.59-7.66.63-12.316 1.405-13.09s5.427-1.993 13.09-1.406c1.087.083 3.171 1.934 1.817 5.538-.675 1.798-1.26 2.455.254 3.583a5.883 5.883 0 0 0 1.909.919 5.889 5.889 0 0 0 1.91-.92c1.514-1.127.932-1.781.254-3.583-1.353-3.604.73-5.455 1.816-5.537 7.661-.59 12.315.63 13.09 1.405s1.993 5.427 1.406 13.09z"/><path d="M273.222 472.682c-.899.95-1.955 1.125-2.183.663l-.084-.172s-.046-.084-.407-.803c-.79-1.572-2.516-.309-3.074.47s-.089.619.88.657a1.463 1.463 0 0 1 1.35 2.127 25.5 25.5 0 0 1-3.344 3.807 6.51 6.51 0 0 1 .711.605 6.517 6.517 0 0 1 .606.711 25.454 25.454 0 0 1 3.81-3.341 1.463 1.463 0 0 1 2.127 1.35c.041.967-.121 1.435.656.88s2.04-2.286.468-3.077c-.719-.361-.803-.406-.803-.407l-.17-.084c-.46-.224-.291-1.28.661-2.182 1.729-1.638 2.133-2.224 2.156-3.36-1.14.026-1.726.43-3.36 2.156z"/></g><path d="M286.735 420.013a28.537 28.537 0 1 0 40.358 0 28.537 28.537 0 0 0-40.358 0zm19.41 3.784c1.8-3.94 5.878-7.234 7.02-6.927s3.028 5.197 2.616 9.51a14.265 14.265 0 0 1-3.56 7.704 8.09 8.09 0 0 0-6.846-1.843 14.256 14.256 0 0 1 .77-8.444zm4.411 12.756a5.144 5.144 0 1 1-7.274 0 5.144 5.144 0 0 1 7.27.002zm-18.226-3.891c-2.512-3.528-3.326-8.709-2.49-9.545s6.016-.022 9.544 2.49a14.259 14.259 0 0 1 4.89 6.935 8.031 8.031 0 0 0-5.01 5.01 14.263 14.263 0 0 1-6.934-4.89zm-8.74 13.78c-.306-1.143 2.988-5.221 6.928-7.021a14.26 14.26 0 0 1 8.441-.768 8.088 8.088 0 0 0 1.844 6.846 14.265 14.265 0 0 1-7.705 3.56c-4.31.41-9.202-1.475-9.508-2.617zm24.095 10.146c-1.8 3.939-5.878 7.234-7.021 6.928s-3.027-5.198-2.616-9.51a14.26 14.26 0 0 1 3.562-7.704 8.086 8.086 0 0 0 6.843 1.845 14.26 14.26 0 0 1-.768 8.44zm13.815-8.865c2.513 3.528 3.327 8.708 2.49 9.544s-6.015.021-9.544-2.49a14.263 14.263 0 0 1-4.89-6.935 8.025 8.025 0 0 0 5.011-5.01 14.258 14.258 0 0 1 6.932 4.89zm8.738-13.781c.307 1.143-2.985 5.218-6.928 7.02a14.256 14.256 0 0 1-8.442.77 8.088 8.088 0 0 0-1.843-6.845 14.266 14.266 0 0 1 7.703-3.562c4.312-.41 9.205 1.475 9.51 2.617z"/><g transform="rotate(-45 633.224 -177.505)"><path d="M40.007 17.067a11.47 11.47 0 0 0-11.47-11.47c-6.339 0-11.857 4.748-11.857 11.083-6.335 0-11.082 5.523-11.082 11.857a11.47 11.47 0 0 0 11.469 11.47 11.47 11.47 0 1 0 22.94 0 11.47 11.47 0 0 0 0-22.94zm8.234 10.908a1 1 0 0 1-1.059-.121 3.7 3.7 0 0 0-2.154-.779 6.2 6.2 0 0 1 1.97 1.308c.912.847 1.288 1.588 1.12 2.2a1.147 1.147 0 0 1-.908.788 1.268 1.268 0 0 1-1.211-.319 1.68 1.68 0 0 0-1.211-.715 3.009 3.009 0 0 1 1.435 2.483c0 1.233-.738 2.739-1.6 2.739a.761.761 0 0 1-.7-.518 2.827 2.827 0 0 1-.173-1.112 2.147 2.147 0 0 0-.614-1.587 3.206 3.206 0 0 1 .173 1.077c0 1.283-.707 2.852-1.533 2.852a.755.755 0 0 1-.705-.573 3.518 3.518 0 0 1-.166-1.226 1.57 1.57 0 0 0-.5-1.307c-.964-.777-3.293-.27-4.684.033a833.662 833.662 0 0 1-6.129 1.3.379.379 0 0 1-.175-.005 5.859 5.859 0 0 1-3.271-.425c.116.19.235.384.365.592a5.676 5.676 0 0 0 3.287 2.558 12.752 12.752 0 0 1 1.561.7 5.736 5.736 0 0 1 2.479 3.067 6.38 6.38 0 0 1-.3 4.949c-.949 2.031-2.337 2.789-3.319 2.821h-.062a1.15 1.15 0 0 1-1.054-.516 1 1 0 0 1 .122-1.059 3.689 3.689 0 0 0 .778-2.154 6.191 6.191 0 0 1-1.312 1.971c-.848.912-1.588 1.289-2.2 1.12a1.145 1.145 0 0 1-.789-.908 1.266 1.266 0 0 1 .319-1.211 1.68 1.68 0 0 0 .715-1.211 3.011 3.011 0 0 1-2.483 1.435c-1.233 0-2.739-.738-2.739-1.6a.761.761 0 0 1 .518-.7 2.823 2.823 0 0 1 1.112-.173 2.146 2.146 0 0 0 1.587-.614 3.216 3.216 0 0 1-1.077.173c-1.284 0-2.852-.708-2.852-1.533a.753.753 0 0 1 .573-.705 3.51 3.51 0 0 1 1.223-.163 1.566 1.566 0 0 0 1.306-.5c.777-.964.27-3.293-.033-4.684-.521-2.4-1.3-6.129-1.3-6.129a.385.385 0 0 1 0-.175 6.081 6.081 0 0 1-.071-.877 6.012 6.012 0 0 1 .5-2.394c-.19.115-.385.235-.592.365a5.674 5.674 0 0 0-2.552 3.284 12.759 12.759 0 0 1-.7 1.56 5.739 5.739 0 0 1-3.067 2.48 6.224 6.224 0 0 1-2.086.362 6.717 6.717 0 0 1-2.863-.663c-2.031-.949-2.789-2.337-2.821-3.319a1.174 1.174 0 0 1 .514-1.12 1 1 0 0 1 1.06.121 3.692 3.692 0 0 0 2.153.779 6.215 6.215 0 0 1-1.974-1.309c-.911-.847-1.288-1.588-1.12-2.2a1.147 1.147 0 0 1 .908-.789 1.267 1.267 0 0 1 1.211.318 1.681 1.681 0 0 0 1.212.716 3.009 3.009 0 0 1-1.435-2.481c0-1.233.738-2.739 1.6-2.739a.762.762 0 0 1 .7.518 2.84 2.84 0 0 1 .173 1.112 2.139 2.139 0 0 0 .611 1.578 3.214 3.214 0 0 1-.171-1.068c0-1.284.708-2.852 1.534-2.852.578 0 .871.6.871 1.8a1.568 1.568 0 0 0 .5 1.307c.964.777 3.293.27 4.684-.033 2.4-.522 6.129-1.3 6.129-1.3a.391.391 0 0 1 .176.006 5.871 5.871 0 0 1 3.271.426c-.115-.19-.236-.386-.366-.594a5.677 5.677 0 0 0-3.287-2.556 12.68 12.68 0 0 1-1.56-.7 5.738 5.738 0 0 1-2.48-3.066 6.382 6.382 0 0 1 .3-4.95c.949-2.03 2.336-2.788 3.318-2.82a1.164 1.164 0 0 1 1.116.514 1 1 0 0 1-.113 1.062 3.679 3.679 0 0 0-.778 2.154 6.19 6.19 0 0 1 1.308-1.974c.848-.912 1.59-1.287 2.2-1.12a1.147 1.147 0 0 1 .788.908 1.264 1.264 0 0 1-.319 1.211 1.677 1.677 0 0 0-.714 1.211 3.008 3.008 0 0 1 2.482-1.435c1.233 0 2.74.738 2.74 1.6a.761.761 0 0 1-.519.7 2.822 2.822 0 0 1-1.112.173 2.146 2.146 0 0 0-1.587.614 3.2 3.2 0 0 1 1.077-.173c1.284 0 2.852.708 2.852 1.534 0 .578-.6.871-1.8.871a1.565 1.565 0 0 0-1.306.5c-.777.964-.271 3.293.032 4.684a833.662 833.662 0 0 1 1.3 6.129.384.384 0 0 1-.006.177 5.853 5.853 0 0 1-.425 3.27c.19-.115.386-.236.593-.366a5.677 5.677 0 0 0 2.556-3.287 12.75 12.75 0 0 1 .7-1.56 5.737 5.737 0 0 1 3.066-2.48 6.382 6.382 0 0 1 4.95.3c2.03.949 2.788 2.336 2.82 3.318a1.173 1.173 0 0 1-.511 1.119z"/><path d="M28.537 0a28.537 28.537 0 1 0 28.538 28.537A28.537 28.537 0 0 0 28.537 0zm14.125 42.662a14.372 14.372 0 0 1-28.25 0A14.4 14.4 0 0 1 2.693 28.537c0-7.019 4.671-13.262 11.332-14.512 1.25-6.662 7.493-11.333 14.512-11.333a14.4 14.4 0 0 1 14.125 11.72 14.372 14.372 0 0 1 0 28.25z"/><circle cx="3.982" cy="3.982" r="3.982" transform="rotate(-22.48 77.905 -45.468)"/></g><g transform="rotate(-45 601.81 -253.345)"><path d="M25.366 20.929a10.683 10.683 0 0 0-7.545-3.108 10.68 10.68 0 0 0 3.108 7.545 8.262 8.262 0 0 1 4.437-4.437zM20.928 31.709a10.683 10.683 0 0 0-3.107 7.545 10.683 10.683 0 0 0 7.545-3.107 8.27 8.27 0 0 1-4.438-4.438zM13.538 32.384c-2.199 0-6.433-2.198-6.433-3.846a10.719 10.719 0 0 0 8.007 10.366 13.349 13.349 0 0 1 2.883-7.953c-1.638.887-2.459 1.433-4.457 1.433zM13.538 24.69c2 0 2.819.542 4.456 1.434a13.353 13.353 0 0 1-2.882-7.953 10.718 10.718 0 0 0-8.007 10.365c0-1.648 4.234-3.846 6.433-3.846zM32.384 13.538c0 2-.542 2.819-1.434 4.456a13.357 13.357 0 0 1 7.954-2.883 10.72 10.72 0 0 0-10.367-8.006c1.648 0 3.847 4.234 3.847 6.433zM36.147 25.366a10.683 10.683 0 0 0 3.107-7.545 10.681 10.681 0 0 0-7.545 3.108 8.269 8.269 0 0 1 4.438 4.437z"/><path d="M24.69 13.538c0-2.2 2.2-6.433 3.847-6.433a10.719 10.719 0 0 0-10.366 8.007 13.353 13.353 0 0 1 7.953 2.883c-.892-1.638-1.434-2.459-1.434-4.457zM32.384 43.537c0 2.2-2.2 6.434-3.847 6.434a10.72 10.72 0 0 0 10.367-8.007 13.353 13.353 0 0 1-7.954-2.883c.892 1.637 1.434 2.458 1.434 4.456z"/><path d="M24.69 43.537c0-2 .542-2.819 1.434-4.456a13.353 13.353 0 0 1-7.953 2.883 10.719 10.719 0 0 0 10.366 8.007c-1.648 0-3.847-4.235-3.847-6.434zM41.964 18.171a13.353 13.353 0 0 1-2.883 7.953c1.638-.892 2.458-1.434 4.456-1.434 2.2 0 6.433 2.2 6.433 3.847 0 1.648-4.234 3.847-6.433 3.847-2 0-2.819-.542-4.456-1.433a13.35 13.35 0 0 1 2.883 7.953 10.714 10.714 0 0 0 0-20.733z"/><path d="M28.537 0a28.537 28.537 0 1 0 28.537 28.537A28.537 28.537 0 0 0 28.537 0zm13.2 41.734a13.428 13.428 0 0 1-26.394 0 13.428 13.428 0 0 1 0-26.394 13.428 13.428 0 0 1 26.394 0 13.428 13.428 0 0 1 0 26.394z"/><circle cx="5.77" cy="5.77" r="5.77" transform="rotate(-67.5 34.189 .116)"/><path d="M31.709 36.147a10.683 10.683 0 0 0 7.545 3.107 10.682 10.682 0 0 0-3.107-7.545 8.27 8.27 0 0 1-4.438 4.438z"/></g><g><path d="M441.032 302.225a.421.421 0 0 1-.42.42h-1.646a.419.419 0 0 1-.42-.42v-1.21a5.6 5.6 0 0 0-4.254 4.254h1.21a.42.42 0 0 1 .42.42v1.646a.421.421 0 0 1-.42.42h-1.209a5.6 5.6 0 0 0 4.253 4.253l.003-1.205a.419.419 0 0 1 .42-.42l1.643-.004a.42.42 0 0 1 .42.42l-.001 1.209a5.6 5.6 0 0 0 4.253-4.253h-1.209a.419.419 0 0 1-.42-.42l.005-1.643a.419.419 0 0 1 .42-.42h1.21a5.6 5.6 0 0 0-4.253-4.253zm.7 6.23a2.744 2.744 0 1 1-.003-3.884 2.744 2.744 0 0 1 0 3.88z"/><path d="M420.013 286.736a28.537 28.537 0 1 0 40.357 0 28.538 28.538 0 0 0-40.357 0zm37.243 2.667a48.6 48.6 0 0 0-1.114 4.903c-.243 1.476-1.729 2.265-3.048 2.68a4.176 4.176 0 0 1 2.201.852 1.88 1.88 0 0 1 .518 1.805 2.208 2.208 0 0 1-1.444 1.55 3.375 3.375 0 0 1-2.619-.15.987.987 0 0 1-.48-.73 1.1 1.1 0 0 1 .702-1.086c.041-.024.09-.052.137-.083a2.7 2.7 0 0 0-1.828.11 1.232 1.232 0 0 1-1.953 1.46l-.306-.306-1.365 1.364a8.306 8.306 0 0 1 1.374 3.495h3.519a1.521 1.521 0 0 1 .254-.17 1.592 1.592 0 0 1 1.996-1.996 1.591 1.591 0 0 1 2.82 0 1.591 1.591 0 0 1 1.995 1.995 1.59 1.59 0 0 1 .854 1.408 1.587 1.587 0 0 1-.854 1.41 1.591 1.591 0 0 1-1.994 1.994 1.592 1.592 0 0 1-2.825-.004 1.591 1.591 0 0 1-1.994-1.994 1.643 1.643 0 0 1-.254-.17h-3.519a8.3 8.3 0 0 1-1.372 3.494l1.37 1.37.305-.306a1.232 1.232 0 0 1 1.953 1.46 2.694 2.694 0 0 0 1.832.108c-.043-.023-.098-.055-.14-.08a1.1 1.1 0 0 1-.701-1.087.986.986 0 0 1 .479-.728 3.374 3.374 0 0 1 2.62-.151 2.206 2.206 0 0 1 1.443 1.551 1.88 1.88 0 0 1-.518 1.805 4.181 4.181 0 0 1-2.202.852c1.32.415 2.806 1.204 3.048 2.68a48.785 48.785 0 0 0 1.112 4.905.29.29 0 0 1-.36.36 48.428 48.428 0 0 0-4.907-1.104c-1.476-.242-2.265-1.729-2.68-3.048a4.177 4.177 0 0 1-.852 2.201 1.88 1.88 0 0 1-1.804.518 2.208 2.208 0 0 1-1.552-1.445 3.375 3.375 0 0 1 .15-2.619.989.989 0 0 1 .73-.48 1.1 1.1 0 0 1 1.087.702c.023.04.051.09.082.136a2.7 2.7 0 0 0-.11-1.828 1.232 1.232 0 0 1-1.459-1.96l.306-.305-1.361-1.36a8.3 8.3 0 0 1-3.495 1.372v3.522a1.6 1.6 0 0 1 .17.254 1.591 1.591 0 0 1 1.994 1.994 1.591 1.591 0 0 1 .004 2.825 1.591 1.591 0 0 1-1.995 1.994 1.587 1.587 0 0 1-1.409.854 1.59 1.59 0 0 1-1.41-.854 1.591 1.591 0 0 1-1.993-1.994 1.591 1.591 0 0 1 0-2.821 1.591 1.591 0 0 1 1.995-1.995 1.578 1.578 0 0 1 .17-.254v-3.519a8.3 8.3 0 0 1-3.495-1.373l-1.37 1.369.306.305a1.231 1.231 0 0 1-1.46 1.953 2.694 2.694 0 0 0-.107 1.833l.08-.14a1.1 1.1 0 0 1 1.086-.702.987.987 0 0 1 .73.48 3.375 3.375 0 0 1 .151 2.618 2.209 2.209 0 0 1-1.552 1.445 1.881 1.881 0 0 1-1.804-.517 4.176 4.176 0 0 1-.852-2.202c-.415 1.318-1.204 2.805-2.68 3.047a48.635 48.635 0 0 0-4.904 1.112.29.29 0 0 1-.36-.36 48.343 48.343 0 0 0 1.112-4.904c.243-1.476 1.73-2.265 3.047-2.68a4.176 4.176 0 0 1-2.201-.851 1.882 1.882 0 0 1-.518-1.805 2.21 2.21 0 0 1 1.446-1.551 3.376 3.376 0 0 1 2.619.151.987.987 0 0 1 .48.73 1.094 1.094 0 0 1-.702 1.086c-.04.023-.09.052-.136.082a2.694 2.694 0 0 0 1.827-.11 1.232 1.232 0 0 1 1.953-1.46l.306.306 1.364-1.364a8.3 8.3 0 0 1-1.373-3.495l-3.528-.008a1.528 1.528 0 0 1-.255.17 1.591 1.591 0 0 1-1.995 1.995 1.591 1.591 0 0 1-2.82 0 1.592 1.592 0 0 1-1.995-1.994 1.588 1.588 0 0 1-.853-1.41 1.584 1.584 0 0 1 .853-1.409 1.591 1.591 0 0 1 1.995-1.994 1.591 1.591 0 0 1 2.82 0 1.591 1.591 0 0 1 1.994 1.994 1.523 1.523 0 0 1 .255.17h3.517a8.3 8.3 0 0 1 1.374-3.495l-1.365-1.366-.299.299a1.231 1.231 0 0 1-1.953-1.46 2.693 2.693 0 0 0-1.833-.107c.044.023.099.054.141.08a1.093 1.093 0 0 1 .7 1.087.99.99 0 0 1-.479.73 3.375 3.375 0 0 1-2.618.154 2.208 2.208 0 0 1-1.445-1.552 1.88 1.88 0 0 1 .518-1.804 4.171 4.171 0 0 1 2.201-.853c-1.318-.415-2.805-1.204-3.047-2.679a48.427 48.427 0 0 0-1.112-4.904.3.3 0 0 1 .36-.36 48.727 48.727 0 0 0 4.904 1.112c1.476.243 2.265 1.729 2.68 3.047a4.175 4.175 0 0 1 .852-2.202 1.88 1.88 0 0 1 1.805-.518 2.206 2.206 0 0 1 1.551 1.444 3.374 3.374 0 0 1-.15 2.62.99.99 0 0 1-.73.479 1.1 1.1 0 0 1-1.093-.7c-.023-.04-.051-.09-.081-.136a2.7 2.7 0 0 0 .11 1.828 1.231 1.231 0 0 1 1.459 1.953l-.306.306 1.363 1.363a8.3 8.3 0 0 1 3.495-1.373v-3.518a1.642 1.642 0 0 1-.17-.254 1.592 1.592 0 0 1-1.994-1.995 1.592 1.592 0 0 1 0-2.82 1.592 1.592 0 0 1 1.995-1.995 1.588 1.588 0 0 1 1.41-.854 1.587 1.587 0 0 1 1.408.854 1.591 1.591 0 0 1 1.995 1.995 1.59 1.59 0 0 1-.001 2.82 1.591 1.591 0 0 1-1.994 1.995 1.523 1.523 0 0 1-.17.254v3.518a8.3 8.3 0 0 1 3.495 1.374l1.364-1.364-.307-.306a1.232 1.232 0 0 1 1.46-1.953 2.687 2.687 0 0 0 .108-1.832 3.979 3.979 0 0 1-.08.14 1.1 1.1 0 0 1-1.086.702.987.987 0 0 1-.73-.48 3.375 3.375 0 0 1-.151-2.618 2.208 2.208 0 0 1 1.55-1.445 1.881 1.881 0 0 1 1.805.517 4.176 4.176 0 0 1 .852 2.202c.415-1.32 1.205-2.805 2.68-3.048a48.313 48.313 0 0 0 4.904-1.112.291.291 0 0 1 .36.36z"/></g></g></svg>